<svg xmlns="http://www.w3.org/2000/svg" width="24" height="17" viewBox="0 0 24 17" fill="none">
  <path d="M14.25 6.12498H17.25M6.75002 6.12498H9.75002M8.25002 4.62498V7.62498M20.9277 5.25405L22.4606 13.1687C22.5575 13.7185 22.4766 14.2849 22.2297 14.7855C21.9827 15.2862 21.5826 15.6952 21.0875 15.9529C20.5923 16.2107 20.0278 16.3039 19.476 16.219C18.9243 16.1342 18.4139 15.8756 18.0191 15.4809L13.9688 10.9842M16.1267 1.22559L7.87544 1.24998C6.72928 1.25006 5.61977 1.65388 4.74168 2.39053C3.86359 3.12718 3.27304 4.1496 3.0737 5.2783L1.54034 13.1687C1.44344 13.7185 1.52433 14.2849 1.77125 14.7855C2.01818 15.2862 2.41829 15.6952 2.91347 15.9529C3.40865 16.2107 3.97311 16.3039 4.52488 16.219C5.07665 16.1341 5.58698 15.8756 5.98177 15.4809L10.035 11L16.1267 10.9756C17.4197 10.9756 18.6596 10.462 19.5739 9.54773C20.4881 8.63349 21.0017 7.39352 21.0017 6.10059C21.0017 4.80766 20.4881 3.56768 19.5739 2.65344C18.6596 1.7392 17.4197 1.22559 16.1267 1.22559Z" stroke="white" stroke-width="1.5" stroke-linecap="round" stroke-linejoin="round"/>
</svg>