<svg xmlns="http://www.w3.org/2000/svg" width="24" height="24" viewBox="0 0 24 24" fill="none">
  <path d="M11.9995 15V17.25M11.9995 15C13.035 15 13.8745 14.1605 13.8745 13.125C13.8745 12.0895 13.035 11.25 11.9995 11.25C10.964 11.25 10.1245 12.0895 10.1245 13.125C10.1245 14.1605 10.964 15 11.9995 15ZM8.62451 8.25V4.875C8.62451 3.97989 8.98009 3.12145 9.61303 2.48851C10.246 1.85558 11.1044 1.5 11.9995 1.5C12.8946 1.5 13.7531 1.85558 14.386 2.48851C15.0189 3.12145 15.3745 3.97989 15.3745 4.875V8.25M4.49951 8.25H19.4995C19.9137 8.25 20.2495 8.58579 20.2495 9V19.5C20.2495 19.9142 19.9137 20.25 19.4995 20.25H4.49951C4.0853 20.25 3.74951 19.9142 3.74951 19.5V9C3.74951 8.58579 4.0853 8.25 4.49951 8.25Z" stroke="white" stroke-width="1.5" stroke-linecap="round" stroke-linejoin="round"/>
</svg>