<svg xmlns="http://www.w3.org/2000/svg" width="22" height="21" viewBox="0 0 22 21" fill="none">
  <path d="M18.25 9.5V5M20.5 7.25H16M13.75 1.25V4.25M15.25 2.75H12.25M18.3121 13.3109C16.8398 13.72 15.2853 13.7308 13.8076 13.3421C12.3298 12.9534 10.9817 12.1793 9.90122 11.0988C8.82073 10.0183 8.04657 8.67027 7.6579 7.19248C7.26923 5.71469 7.28 4.1602 7.6891 2.68794C6.23698 3.0919 4.91629 3.86937 3.85813 4.94276C2.79998 6.01615 2.04155 7.34806 1.65838 8.80581C1.27522 10.2636 1.2807 11.7963 1.67428 13.2512C2.06787 14.7062 2.83581 16.0327 3.90161 17.0985C4.96741 18.1642 6.29387 18.9322 7.74885 19.3257C9.20382 19.7193 10.7365 19.7248 12.1943 19.3416C13.652 18.9584 14.9839 18.2 16.0573 17.1418C17.1307 16.0837 17.9081 14.763 18.3121 13.3109Z" stroke="#F4F6F6" stroke-width="1.5" stroke-linecap="round" stroke-linejoin="round"/>
</svg>