<svg xmlns="http://www.w3.org/2000/svg" width="168" height="112" viewBox="0 0 168 112"><rect width="100%" height="100%" fill="#DDDDDD"/><path fill="#999999" d="M40.405 62.185h2.99v2.13h-9.2v-2.13h3.37v-9.69q0-.58.04-1.19l-2.39 2q-.21.17-.41.21-.2.04-.38 0-.18-.03-.32-.12t-.21-.19l-.89-1.23 5.07-4.31h2.33v14.52Zm15.37-14.5-4.94 6.04-.57.71q.48-.24 1.04-.37t1.2-.13q.94 0 1.84.31.89.31 1.57.93.67.63 1.09 1.56.41.93.41 2.17 0 1.17-.42 2.18-.43 1.02-1.2 1.78t-1.86 1.2q-1.08.43-2.39.43-1.34 0-2.4-.42-1.05-.43-1.8-1.19-.75-.77-1.15-1.84-.39-1.08-.39-2.39 0-1.17.47-2.41.48-1.23 1.48-2.57l3.97-5.32q.21-.28.6-.47.4-.2.92-.2h2.53Zm-4.29 14.49q.68 0 1.25-.23.56-.23.97-.64.41-.42.64-.97.23-.56.23-1.22 0-.71-.22-1.28-.22-.57-.62-.97-.4-.39-.96-.6-.57-.21-1.25-.21-.67 0-1.23.23-.55.23-.94.64-.39.41-.61.97-.22.55-.22 1.2 0 .69.19 1.26.19.57.57.97.37.4.92.63.55.22 1.28.22Zm13.36.1q.7 0 1.23-.2t.89-.55q.36-.36.55-.86.18-.49.18-1.06 0-1.37-.76-2.08-.76-.7-2.09-.7-1.33 0-2.09.7-.76.71-.76 2.08 0 .57.18 1.06.19.5.55.86.36.35.89.55.53.2 1.23.2Zm0-12.63q-.63 0-1.09.19-.46.2-.77.52-.3.33-.44.76-.15.42-.15.9 0 .49.12.96.12.46.41.82.29.37.76.58.47.22 1.16.22t1.16-.22q.47-.21.76-.58.29-.36.41-.82.12-.47.12-.96 0-.48-.15-.9-.15-.43-.45-.76-.3-.32-.76-.52-.46-.19-1.09-.19Zm2.81 6q1.51.49 2.24 1.51.72 1.02.72 2.49 0 1.11-.42 2-.42.9-1.17 1.53-.76.63-1.83.98-1.06.34-2.35.34t-2.35-.34q-1.06-.35-1.82-.98t-1.18-1.53q-.42-.89-.42-2 0-1.47.72-2.49.73-1.02 2.24-1.51-1.2-.51-1.81-1.44-.6-.93-.6-2.24 0-.94.39-1.76.38-.82 1.07-1.42.69-.6 1.65-.94.96-.34 2.11-.34t2.11.34q.96.34 1.65.94.69.6 1.08 1.42.38.82.38 1.76 0 1.31-.6 2.24-.61.93-1.81 1.44Zm21.55 4.86-1.51 1.49-3.9-3.9-3.93 3.92-1.51-1.48 3.94-3.95-3.75-3.75 1.49-1.49 3.75 3.75 3.73-3.73 1.52 1.5-3.74 3.73 3.91 3.91Zm15.74 1.68h2.99v2.13h-9.2v-2.13h3.37v-9.69q0-.58.04-1.19l-2.4 2q-.2.17-.4.21-.21.04-.38 0-.18-.03-.32-.12t-.21-.19l-.89-1.23 5.07-4.31h2.33v14.52Zm13.34 0h2.99v2.13h-9.2v-2.13h3.37v-9.69q0-.58.04-1.19l-2.4 2q-.2.17-.4.21-.21.04-.38 0-.18-.03-.32-.12t-.21-.19l-.89-1.23 5.07-4.31h2.33v14.52Zm11.44-.52h4.27q.46 0 .73.26.27.26.27.69v1.7h-11.41v-.94q0-.29.12-.61.12-.31.39-.57l5.05-5.06q.63-.64 1.13-1.23.5-.58.83-1.16.34-.57.52-1.17.17-.59.17-1.24 0-.6-.17-1.06-.17-.45-.49-.76-.31-.31-.76-.47-.44-.15-.99-.15-.51 0-.94.14-.43.15-.76.41-.34.25-.57.6-.23.34-.34.76-.2.53-.51.7-.31.17-.89.08l-1.5-.26q.17-1.2.67-2.1.49-.91 1.23-1.51.75-.6 1.71-.91.96-.3 2.06-.3 1.15 0 2.1.34.96.34 1.64.96.68.62 1.06 1.49.37.88.37 1.95 0 .92-.27 1.7-.27.78-.72 1.49-.45.72-1.06 1.38-.61.67-1.28 1.36l-3.75 3.83q.54-.16 1.08-.25.53-.09 1.01-.09Z"/></svg>