<svg width="20" height="21" viewBox="0 0 20 21" fill="none" xmlns="http://www.w3.org/2000/svg">
<g id="Icon / 24 px / Gift ">
<g id="Icon">
<path id="Vector" d="M16.25 10.5V16.125C16.25 16.2908 16.1842 16.4497 16.0669 16.5669C15.9497 16.6842 15.7908 16.75 15.625 16.75H4.375C4.20924 16.75 4.05027 16.6842 3.93306 16.5669C3.81585 16.4497 3.75 16.2908 3.75 16.125V10.5M10 6.75V16.75M10 6.75C10 6.75 12.6517 6.75 13.5355 5.86612C13.8868 5.51442 14.0841 5.03761 14.084 4.54051C14.0838 4.04342 13.8863 3.56672 13.5348 3.21522C13.1833 2.86372 12.7066 2.66619 12.2095 2.66605C11.7124 2.6659 11.2356 2.86317 10.8839 3.21447C10 4.09835 10 6.75 10 6.75ZM10 6.75C10 6.75 7.34835 6.75 6.46447 5.86612C6.11317 5.51442 5.9159 5.03761 5.91605 4.54051C5.91619 4.04342 6.11372 3.56672 6.46522 3.21522C6.81672 2.86372 7.29342 2.66619 7.79051 2.66605C8.28761 2.6659 8.76442 2.86317 9.11612 3.21447C10 4.09835 10 6.75 10 6.75ZM3.125 6.75H16.875C17.2202 6.75 17.5 7.02982 17.5 7.375V9.875C17.5 10.2202 17.2202 10.5 16.875 10.5H3.125C2.77982 10.5 2.5 10.2202 2.5 9.875V7.375C2.5 7.02982 2.77982 6.75 3.125 6.75Z" stroke="#808086" stroke-width="1.5" stroke-linecap="round" stroke-linejoin="round"/>
</g>
</g>
</svg>
