<svg width="20" height="21" viewBox="0 0 20 21" fill="none" xmlns="http://www.w3.org/2000/svg">
<g id="Icon / 24 px / PawPrint ">
<g id="Icon">
<g id="Vector">
<path d="M16.5625 10.5C17.4254 10.5 18.125 9.80045 18.125 8.9375C18.125 8.07456 17.4254 7.375 16.5625 7.375C15.6996 7.375 15 8.07456 15 8.9375C15 9.80045 15.6996 10.5 16.5625 10.5Z" stroke="#808086" stroke-width="1.5" stroke-linecap="round" stroke-linejoin="round"/>
<path d="M3.4375 10.5C4.30044 10.5 5 9.80045 5 8.9375C5 8.07456 4.30044 7.375 3.4375 7.375C2.57456 7.375 1.875 8.07456 1.875 8.9375C1.875 9.80045 2.57456 10.5 3.4375 10.5Z" stroke="#808086" stroke-width="1.5" stroke-linecap="round" stroke-linejoin="round"/>
<path d="M14.3153 12.6761C13.5314 12.2407 12.9511 11.5133 12.7007 10.6523C12.5307 10.0676 12.1755 9.55385 11.6885 9.18825C11.2015 8.82266 10.609 8.625 10 8.625C9.39104 8.625 8.79853 8.82266 8.31154 9.18825C7.82454 9.55385 7.46936 10.0676 7.29939 10.6524C7.04896 11.5134 6.46861 12.2407 5.68471 12.6761C5.12003 12.9821 4.69479 13.4938 4.49713 14.1049C4.29947 14.7161 4.34456 15.3798 4.62305 15.9586C4.90153 16.5374 5.39205 16.9868 5.99294 17.2138C6.59382 17.4407 7.25898 17.4277 7.85054 17.1774C9.22787 16.6127 10.7721 16.6127 12.1495 17.1774C12.7411 17.4279 13.4064 17.4411 14.0074 17.2143C14.6085 16.9874 15.0992 16.5379 15.3777 15.959C15.6563 15.3801 15.7013 14.7161 15.5035 14.1049C15.3057 13.4937 14.8802 12.982 14.3153 12.6761Z" stroke="#808086" stroke-width="1.5" stroke-linecap="round" stroke-linejoin="round"/>
<path d="M12.8125 6.75C13.6754 6.75 14.375 6.05045 14.375 5.1875C14.375 4.32456 13.6754 3.625 12.8125 3.625C11.9496 3.625 11.25 4.32456 11.25 5.1875C11.25 6.05045 11.9496 6.75 12.8125 6.75Z" stroke="#808086" stroke-width="1.5" stroke-linecap="round" stroke-linejoin="round"/>
<path d="M7.1875 6.75C8.05044 6.75 8.75 6.05045 8.75 5.1875C8.75 4.32456 8.05044 3.625 7.1875 3.625C6.32455 3.625 5.625 4.32456 5.625 5.1875C5.625 6.05045 6.32455 6.75 7.1875 6.75Z" stroke="#808086" stroke-width="1.5" stroke-linecap="round" stroke-linejoin="round"/>
</g>
</g>
</g>
</svg>
