<svg xmlns="http://www.w3.org/2000/svg" width="38" height="381" viewBox="3 0 31 31" fill="none">
    <path d="M4.00027 1.73278C3.9831 0.747384 4.78461 -0.0618847 5.76845 -0.00383446C10.2685 0.261688 13.6933 1.72958 15.889 4.58414C16.0778 4.82965 16.0299 5.17817 15.7926 5.37727L7.39404 12.4245C7.11423 12.6593 6.69008 12.5911 6.5062 12.2754C4.61446 9.02843 4.07969 6.29153 4.00027 1.73278Z" fill="#08878E"/>
    <path d="M33.9997 1.75111C34.0169 0.765709 33.2154 -0.0435596 32.2315 0.0144906C27.7315 0.280013 24.3067 1.7479 22.111 4.60246C21.9222 4.84798 21.9701 5.19649 22.2074 5.39559L30.606 12.4428C30.8858 12.6776 31.3099 12.6094 31.4938 12.2938C33.3855 9.04676 33.9203 6.30986 33.9997 1.75111Z" fill="#08878E"/>
    <path d="M4.50019 1.72407C4.48782 1.01389 5.06148 0.455321 5.739 0.495297C10.1466 0.755367 13.4129 2.18513 15.4926 4.88898C15.5025 4.90175 15.5069 4.91661 15.5045 4.93539C15.502 4.95538 15.4916 4.9771 15.4712 4.99424L7.07264 12.0415C7.02363 12.0826 6.96162 12.0639 6.93823 12.0237C5.10445 8.87623 4.57874 6.23294 4.50019 1.72407ZM32.261 0.513623C32.9385 0.473646 33.5122 1.03221 33.4998 1.7424C33.4213 6.25127 32.8955 8.89455 31.0618 12.0421C31.0384 12.0822 30.9764 12.1009 30.9274 12.0598L22.5288 5.01257C22.5084 4.99542 22.498 4.97371 22.4955 4.95372C22.4931 4.93494 22.4975 4.92007 22.5074 4.9073C24.5871 2.20345 27.8534 0.773692 32.261 0.513623Z" stroke="white"/>
    <path d="M32.286 13.4536C32.286 6.65924 25.8177 1.07118 18.9879 1.07118C12.1581 1.07118 5.68982 6.65924 5.68982 13.4536C5.68982 17.4015 7.34155 20.3373 9.81247 22.2975C12.2963 24.2679 15.6306 25.2677 18.9879 25.2677C22.3452 25.2677 25.6795 24.2679 28.1634 22.2975C30.6343 20.3373 32.286 17.4015 32.286 13.4536Z" fill="#08878E" stroke="white"/>
    <path d="M11.489 11.3696C11.489 12.3636 12.2948 13.1694 13.2888 13.1694C14.2827 13.1694 15.0885 12.3636 15.0885 11.3696C15.0885 10.3757 14.2827 9.56989 13.2888 9.56989C12.2948 9.56989 11.489 10.3757 11.489 11.3696Z" fill="white"/>
    <path d="M22.8874 11.3696C22.8874 12.3636 23.6932 13.1694 24.6872 13.1694C25.6812 13.1694 26.4869 12.3636 26.4869 11.3696C26.4869 10.3757 25.6812 9.56989 24.6872 9.56989C23.6932 9.56989 22.8874 10.3757 22.8874 11.3696Z" fill="white"/>
    <path d="M19.5878 15.2691C19.5878 15.8875 20.146 16.4689 20.9376 16.4689C21.7292 16.4689 22.2875 15.8875 22.2875 15.2691C22.2875 14.9378 22.556 14.6692 22.8874 14.6692C23.2187 14.6692 23.4873 14.9378 23.4873 15.2691C23.4873 16.6387 22.2997 17.6688 20.9376 17.6688C20.173 17.6688 19.4633 17.3441 18.9879 16.817C18.5125 17.3441 17.8028 17.6688 17.0382 17.6688C16.2508 17.6688 15.5358 17.3316 15.0631 16.7873C14.7078 16.3781 14.4885 15.8496 14.4885 15.2691C14.4885 14.9378 14.7571 14.6692 15.0884 14.6692C15.4198 14.6692 15.6884 14.9378 15.6884 15.2691C15.6884 15.5399 15.7892 15.7936 15.969 16.0006C16.211 16.2792 16.5941 16.4689 17.0382 16.4689C17.8298 16.4689 18.388 15.8875 18.388 15.2691V12.8694H19.5878V15.2691Z" fill="white"/>
    <path d="M4.66537 13.9191C4.55205 14.2305 4.71258 14.5747 5.02393 14.688L7.56074 15.6114C7.87209 15.7247 8.21635 15.5642 8.32967 15.2528C8.44299 14.9415 8.28246 14.5972 7.97111 14.4839L5.43429 13.5606C5.12295 13.4473 4.77869 13.6078 4.66537 13.9191Z" fill="white"/>
    <path d="M8.54164 17.5721C8.84479 17.4384 9.19892 17.5758 9.33261 17.879C9.46629 18.1821 9.32891 18.5363 9.02575 18.67L6.55563 19.7592C6.25247 19.8929 5.89834 19.7555 5.76466 19.4524C5.63097 19.1492 5.76836 18.7951 6.07151 18.6614L8.54164 17.5721Z" fill="white"/>
    <path d="M10.1786 20.5866C10.4129 20.3523 10.7927 20.3523 11.027 20.5866C11.2613 20.8208 11.2613 21.2007 11.027 21.435L9.11809 23.3439C8.8838 23.5782 8.50396 23.5782 8.26968 23.3439C8.03539 23.1096 8.03539 22.7298 8.26968 22.4955L10.1786 20.5866Z" fill="white"/>
    <path d="M27.8502 20.5866C27.616 20.3523 27.2361 20.3523 27.0018 20.5866C26.7676 20.8208 26.7676 21.2007 27.0018 21.435L28.9108 23.3439C29.145 23.5782 29.5249 23.5782 29.7592 23.3439C29.9935 23.1096 29.9935 22.7298 29.7592 22.4955L27.8502 20.5866Z" fill="white"/>
    <path d="M28.6962 17.879C28.8299 17.5758 29.1841 17.4384 29.4872 17.5721L31.9573 18.6614C32.2605 18.7951 32.3979 19.1492 32.2642 19.4524C32.1305 19.7555 31.7764 19.8929 31.4732 19.7592L29.0031 18.67C28.6999 18.5363 28.5626 18.1821 28.6962 17.879Z" fill="white"/>
    <path d="M33.0049 14.688C33.3163 14.5747 33.4768 14.2305 33.3635 13.9191C33.2502 13.6078 32.9059 13.4473 32.5946 13.5606L30.0577 14.4839C29.7464 14.5972 29.5859 14.9415 29.6992 15.2528C29.8125 15.5642 30.1568 15.7247 30.4681 15.6114L33.0049 14.688Z" fill="white"/>
</svg>

