<svg width="38" height="35" viewBox="0 0 38 35" fill="none" xmlns="http://www.w3.org/2000/svg">
<g id="Group 4" filter="url(#filter0_d_769_2041)">
<g id="Vector">
<path d="M4.00027 2.35235C3.9831 1.36695 4.78461 0.557683 5.76845 0.615733C10.2685 0.881256 13.6933 2.34915 15.889 5.2037C16.0778 5.44922 16.0299 5.79773 15.7926 5.99684L7.39404 13.0441C7.11423 13.2788 6.69008 13.2106 6.5062 12.895C4.61446 9.648 4.07969 6.9111 4.00027 2.35235Z" fill="#08878E"/>
<path d="M33.9997 2.37067C34.0169 1.38528 33.2154 0.576008 32.2315 0.634059C27.7315 0.899581 24.3067 2.36747 22.111 5.22203C21.9222 5.46755 21.9701 5.81606 22.2074 6.01516L30.606 13.0624C30.8858 13.2972 31.3099 13.2289 31.4938 12.9133C33.3855 9.66633 33.9203 6.92942 33.9997 2.37067Z" fill="#08878E"/>
<path d="M4.50019 2.34364C4.48782 1.63346 5.06148 1.07489 5.739 1.11487C10.1466 1.37493 13.4129 2.8047 15.4926 5.50855C15.5025 5.52131 15.5069 5.53618 15.5045 5.55496C15.502 5.57495 15.4916 5.59666 15.4712 5.61381L7.07264 12.661C7.02363 12.7022 6.96162 12.6835 6.93823 12.6433C5.10445 9.49579 4.57874 6.85251 4.50019 2.34364ZM32.261 1.13319C32.9385 1.09321 33.5122 1.65178 33.4998 2.36196C33.4213 6.87084 32.8955 9.51412 31.0618 12.6616C31.0384 12.7018 30.9764 12.7205 30.9274 12.6794L22.5288 5.63214C22.5084 5.61499 22.498 5.59328 22.4955 5.57329C22.4931 5.5545 22.4975 5.53964 22.5074 5.52687C24.5871 2.82302 27.8534 1.39326 32.261 1.13319Z" stroke="white"/>
</g>
<path id="Ellipse 2" d="M32.286 14.0731C32.286 7.27874 25.8177 1.69069 18.9879 1.69069C12.1581 1.69069 5.68982 7.27874 5.68982 14.0731C5.68982 18.021 7.34155 20.9568 9.81247 22.917C12.2963 24.8874 15.6306 25.8872 18.9879 25.8872C22.3452 25.8872 25.6795 24.8874 28.1634 22.917C30.6343 20.9568 32.286 18.021 32.286 14.0731Z" fill="#08878E" stroke="white"/>
<g id="Vector_2">
<path d="M11.489 11.9892C11.489 12.9832 12.2947 13.789 13.2887 13.789C14.2827 13.789 15.0885 12.9832 15.0885 11.9892C15.0885 10.9952 14.2827 10.1895 13.2887 10.1895C12.2947 10.1895 11.489 10.9952 11.489 11.9892Z" fill="white"/>
<path d="M22.8874 11.9892C22.8874 12.9832 23.6932 13.789 24.6871 13.789C25.6811 13.789 26.4869 12.9832 26.4869 11.9892C26.4869 10.9952 25.6811 10.1895 24.6871 10.1895C23.6932 10.1895 22.8874 10.9952 22.8874 11.9892Z" fill="white"/>
</g>
<g id="Union">
<path d="M19.5878 15.8887C19.5878 16.507 20.146 17.0885 20.9376 17.0885C21.7292 17.0885 22.2875 16.507 22.2875 15.8887C22.2875 15.5574 22.556 15.2888 22.8874 15.2888C23.2187 15.2888 23.4873 15.5574 23.4873 15.8887C23.4873 17.2583 22.2997 18.2884 20.9376 18.2884C20.173 18.2884 19.4633 17.9637 18.9879 17.4366C18.5125 17.9637 17.8028 18.2884 17.0382 18.2884C16.2508 18.2884 15.5358 17.9512 15.0631 17.4069C14.7078 16.9977 14.4885 16.4692 14.4885 15.8887C14.4885 15.5574 14.7571 15.2888 15.0884 15.2888C15.4198 15.2888 15.6884 15.5574 15.6884 15.8887C15.6884 16.1594 15.7892 16.4131 15.969 16.6202C16.211 16.8988 16.5941 17.0885 17.0382 17.0885C17.8298 17.0885 18.388 16.507 18.388 15.8887V13.489H19.5878V15.8887Z" fill="white"/>
</g>
<path id="Vector 1 (Stroke)" fill-rule="evenodd" clip-rule="evenodd" d="M20.7877 13.7891C20.7877 14.4517 20.2505 14.9889 19.5879 14.9889L18.388 14.9889C17.7254 14.9889 17.1882 14.4517 17.1882 13.7891C17.1882 13.1264 17.7254 12.5892 18.388 12.5892L19.5879 12.5892C20.2505 12.5892 20.7877 13.1264 20.7877 13.7891Z" fill="white"/>
<g id="Union_2">
<path d="M4.66537 14.5387C4.55205 14.85 4.71258 15.1943 5.02393 15.3076L7.56074 16.2309C7.87209 16.3443 8.21635 16.1837 8.32967 15.8724C8.44299 15.561 8.28246 15.2168 7.97111 15.1035L5.43429 14.1801C5.12295 14.0668 4.77869 14.2274 4.66537 14.5387Z" fill="white"/>
<path d="M8.54164 18.1917C8.84479 18.058 9.19892 18.1954 9.33261 18.4986C9.46629 18.8017 9.32891 19.1558 9.02575 19.2895L6.55563 20.3788C6.25247 20.5125 5.89834 20.3751 5.76466 20.0719C5.63097 19.7688 5.76836 19.4146 6.07151 19.281L8.54164 18.1917Z" fill="white"/>
<path d="M10.1786 21.2061C10.4129 20.9718 10.7927 20.9718 11.027 21.2061C11.2613 21.4404 11.2613 21.8203 11.027 22.0545L9.11809 23.9635C8.8838 24.1977 8.50396 24.1977 8.26968 23.9635C8.03539 23.7292 8.03539 23.3493 8.26968 23.115L10.1786 21.2061Z" fill="white"/>
<path d="M27.8502 21.2061C27.616 20.9718 27.2361 20.9718 27.0018 21.2061C26.7676 21.4404 26.7676 21.8203 27.0018 22.0545L28.9108 23.9635C29.145 24.1977 29.5249 24.1977 29.7592 23.9635C29.9935 23.7292 29.9935 23.3493 29.7592 23.115L27.8502 21.2061Z" fill="white"/>
<path d="M28.6962 18.4986C28.8299 18.1954 29.1841 18.058 29.4872 18.1917L31.9573 19.281C32.2605 19.4146 32.3979 19.7688 32.2642 20.0719C32.1305 20.3751 31.7764 20.5125 31.4732 20.3788L29.0031 19.2895C28.6999 19.1558 28.5626 18.8017 28.6962 18.4986Z" fill="white"/>
<path d="M33.0049 15.3076C33.3163 15.1943 33.4768 14.85 33.3635 14.5387C33.2502 14.2274 32.9059 14.0668 32.5946 14.1801L30.0577 15.1035C29.7464 15.2168 29.5859 15.561 29.6992 15.8724C29.8125 16.1837 30.1568 16.3443 30.4681 16.2309L33.0049 15.3076Z" fill="white"/>
</g>
</g>
<defs>
<filter id="filter0_d_769_2041" x="0" y="0.612793" width="38" height="33.7744" filterUnits="userSpaceOnUse" color-interpolation-filters="sRGB">
<feFlood flood-opacity="0" result="BackgroundImageFix"/>
<feColorMatrix in="SourceAlpha" type="matrix" values="0 0 0 0 0 0 0 0 0 0 0 0 0 0 0 0 0 0 127 0" result="hardAlpha"/>
<feOffset dy="4"/>
<feGaussianBlur stdDeviation="2"/>
<feComposite in2="hardAlpha" operator="out"/>
<feColorMatrix type="matrix" values="0 0 0 0 0 0 0 0 0 0 0 0 0 0 0 0 0 0 0.25 0"/>
<feBlend mode="normal" in2="BackgroundImageFix" result="effect1_dropShadow_769_2041"/>
<feBlend mode="normal" in="SourceGraphic" in2="effect1_dropShadow_769_2041" result="shape"/>
</filter>
</defs>
</svg>
