<svg width="24" height="21" viewBox="0 0 24 21" fill="none" xmlns="http://www.w3.org/2000/svg">
<g id="Group 4">
<g id="Vector">
<path d="M0.000216569 1.39164C-0.0135168 0.603327 0.627691 -0.0440878 1.41476 0.00235235C5.01482 0.21477 7.75462 1.38908 9.51117 3.67273C9.66225 3.86914 9.62389 4.14795 9.43406 4.30723L2.71523 9.94501C2.49138 10.1328 2.15206 10.0783 2.00496 9.82578C0.491565 7.22817 0.063751 5.03864 0.000216569 1.39164Z" fill="white"/>
<path d="M23.9998 1.4063C24.0135 0.617987 23.3723 -0.0294277 22.5852 0.0170124C18.9852 0.22943 16.2454 1.40374 14.4888 3.68739C14.3377 3.8838 14.3761 4.16261 14.5659 4.32189L21.2848 9.95967C21.5086 10.1475 21.8479 10.0929 21.995 9.84044C23.5084 7.24283 23.9362 5.0533 23.9998 1.4063Z" fill="white"/>
<path d="M0.500141 1.38293C0.491202 0.869833 0.904559 0.473118 1.38531 0.501484C4.87455 0.707364 7.44713 1.83274 9.08897 3.9441L2.41812 9.54161C0.977933 7.05776 0.562535 4.96446 0.500141 1.38293ZM22.6147 0.516144C23.0954 0.487778 23.5088 0.884492 23.4999 1.3976C23.4375 4.97912 23.0221 7.07242 21.5819 9.55627L14.911 3.95876C16.5529 1.8474 19.1255 0.722024 22.6147 0.516144Z" stroke="#808086"/>
</g>
<path id="Ellipse 2" d="M22.5289 10.7683C22.5289 5.39686 17.4083 0.962334 11.9904 0.962334C6.5725 0.962334 1.4519 5.39686 1.4519 10.7683C1.4519 13.8952 2.75868 16.2153 4.71217 17.765C6.6786 19.325 9.32299 20.1196 11.9904 20.1196C14.6578 20.1196 17.3022 19.325 19.2686 17.765C21.2221 16.2153 22.5289 13.8952 22.5289 10.7683Z" fill="white" stroke="#808086"/>
<g id="Vector_2">
<path d="M5.99121 9.10115C5.99121 9.89633 6.63583 10.5409 7.43101 10.5409C8.22619 10.5409 8.87081 9.89633 8.87081 9.10115C8.87081 8.30597 8.22619 7.66135 7.43101 7.66135C6.63583 7.66135 5.99121 8.30597 5.99121 9.10115Z" fill="#808086"/>
<path d="M15.11 9.10115C15.11 9.89633 15.7546 10.5409 16.5498 10.5409C17.3449 10.5409 17.9896 9.89633 17.9896 9.10115C17.9896 8.30597 17.3449 7.66135 16.5498 7.66135C15.7546 7.66135 15.11 8.30597 15.11 9.10115Z" fill="#808086"/>
</g>
<g id="Union">
<path d="M12.4703 12.2207C12.4703 12.7154 12.9169 13.1806 13.5502 13.1806C14.1834 13.1806 14.63 12.7154 14.63 12.2207C14.63 11.9557 14.8449 11.7408 15.1099 11.7408C15.375 11.7408 15.5899 11.9557 15.5899 12.2207C15.5899 13.3164 14.6398 14.1405 13.5502 14.1405C12.9385 14.1405 12.3707 13.8807 11.9904 13.4591C11.61 13.8807 11.0423 14.1405 10.4306 14.1405C9.80072 14.1405 9.22868 13.8707 8.85054 13.4353C8.56625 13.1079 8.39087 12.6851 8.39087 12.2207C8.39087 11.9557 8.60574 11.7408 8.8708 11.7408C9.13586 11.7408 9.35074 11.9557 9.35074 12.2207C9.35074 12.4373 9.43144 12.6403 9.57527 12.8059C9.76884 13.0288 10.0753 13.1806 10.4306 13.1806C11.0639 13.1806 11.5104 12.7154 11.5104 12.2207V10.301H12.4703V12.2207Z" fill="#808086"/>
</g>
<path id="Vector 1 (Stroke)" fill-rule="evenodd" clip-rule="evenodd" d="M13.4302 10.5409C13.4302 11.0711 13.0005 11.5008 12.4703 11.5008L11.5105 11.5008C10.9804 11.5008 10.5506 11.0711 10.5506 10.5409C10.5506 10.0108 10.9804 9.58107 11.5105 9.58107L12.4703 9.58107C13.0005 9.58107 13.4302 10.0108 13.4302 10.5409Z" fill="#808086"/>
<g id="Union_2">
<path d="M0.532248 11.1407C0.441592 11.3898 0.570016 11.6652 0.819091 11.7559L2.84855 12.4945C3.09762 12.5852 3.37303 12.4568 3.46368 12.2077C3.55434 11.9586 3.42592 11.6832 3.17684 11.5925L1.14739 10.8539C0.89831 10.7632 0.622904 10.8917 0.532248 11.1407Z" fill="#808086"/>
<path d="M3.63326 14.0631C3.87579 13.9562 4.15909 14.0661 4.26604 14.3086C4.37299 14.5511 4.26308 14.8345 4.02055 14.9414L2.04446 15.8128C1.80193 15.9198 1.51863 15.8099 1.41168 15.5673C1.30473 15.3248 1.41464 15.0415 1.65716 14.9345L3.63326 14.0631Z" fill="#808086"/>
<path d="M4.94283 16.4747C5.13026 16.2872 5.43413 16.2872 5.62156 16.4747C5.80899 16.6621 5.80899 16.966 5.62156 17.1534L4.09442 18.6805C3.90699 18.868 3.60312 18.868 3.41569 18.6805C3.22827 18.4931 3.22827 18.1892 3.41569 18.0018L4.94283 16.4747Z" fill="#808086"/>
<path d="M19.0802 16.4747C18.8927 16.2872 18.5888 16.2872 18.4014 16.4747C18.214 16.6621 18.214 16.966 18.4014 17.1534L19.9286 18.6805C20.116 18.868 20.4199 18.868 20.6073 18.6805C20.7947 18.4931 20.7947 18.1892 20.6073 18.0018L19.0802 16.4747Z" fill="#808086"/>
<path d="M19.7569 14.3086C19.8639 14.0661 20.1472 13.9562 20.3897 14.0631L22.3658 14.9345C22.6083 15.0415 22.7183 15.3248 22.6113 15.5673C22.5044 15.8099 22.2211 15.9198 21.9785 15.8128L20.0024 14.9414C19.7599 14.8345 19.65 14.5511 19.7569 14.3086Z" fill="#808086"/>
<path d="M23.2039 11.7559C23.453 11.6652 23.5814 11.3898 23.4907 11.1407C23.4001 10.8917 23.1247 10.7632 22.8756 10.8539L20.8461 11.5925C20.5971 11.6832 20.4686 11.9586 20.5593 12.2077C20.65 12.4568 20.9254 12.5852 21.1744 12.4945L23.2039 11.7559Z" fill="#808086"/>
</g>
</g>
</svg>
