<svg width="30" height="31" viewBox="0 0 30 31" fill="none" xmlns="http://www.w3.org/2000/svg">
<path d="M7.40002 8.48043C7.40002 4.28307 10.8027 0.880432 15 0.880432C19.1974 0.880432 22.6 4.28307 22.6 8.48043V22.2804C22.6 26.4778 19.1974 29.8804 15 29.8804C10.8027 29.8804 7.40002 26.4778 7.40002 22.2804V8.48043Z" fill="#08878E" stroke="white"/>
<path d="M20.0432 2.60192C19.769 1.84342 20.4594 1.08906 21.2391 1.29515L23.5688 1.91089C27.0647 2.83489 29.5 5.99741 29.5 9.61342V14.4976C29.5 16.2002 28.1198 17.5804 26.4171 17.5804C24.7145 17.5804 23.3343 16.2002 23.3343 14.4976V12.7308C23.3343 12.0527 23.2164 11.3798 22.9859 10.7421L20.0432 2.60192Z" fill="#08878E" stroke="white"/>
<path d="M9.95683 2.60192C10.231 1.84342 9.54062 1.08906 8.76086 1.29515L6.43122 1.91089C2.93526 2.83489 0.50001 5.99741 0.50001 9.61342V14.4976C0.50001 16.2002 1.88025 17.5804 3.58287 17.5804C5.28548 17.5804 6.66572 16.2002 6.66572 14.4976V12.7308C6.66572 12.0527 6.78362 11.3798 7.01415 10.7421L9.95683 2.60192Z" fill="#08878E" stroke="white"/>
<path d="M5.30005 9.38043C5.30005 4.68601 9.10563 0.880432 13.8 0.880432H16.2C20.8945 0.880432 24.7 4.68601 24.7 9.38043V16.8804C24.7 20.2641 23.4766 22.7624 21.6743 24.4181C19.864 26.081 17.439 26.9216 15 26.9216C12.5611 26.9216 10.1361 26.081 8.3258 24.4181C6.52347 22.7624 5.30005 20.2641 5.30005 16.8804V9.38043Z" fill="#08878E" stroke="white"/>
<path d="M24.7 9.38043V16.8611C21.3293 17.273 17.833 15.9683 15.5762 13.1098C12.6969 9.46285 12.7465 4.43985 15.3928 0.880432H16.2C20.8944 0.880432 24.7 4.68601 24.7 9.38043Z" stroke="white" stroke-linecap="round"/>
<path d="M10.8 12.3804C11.7941 12.3804 12.6 11.5745 12.6 10.5804C12.6 9.58631 11.7941 8.78043 10.8 8.78043C9.80589 8.78043 9 9.58631 9 10.5804C9 11.5745 9.80589 12.3804 10.8 12.3804Z" fill="white"/>
<path d="M18.9 12.3804C19.8941 12.3804 20.7 11.5745 20.7 10.5804C20.7 9.58631 19.8941 8.78043 18.9 8.78043C17.9059 8.78043 17.1 9.58631 17.1 10.5804C17.1 11.5745 17.9059 12.3804 18.9 12.3804Z" fill="white"/>
<path d="M12 18.0804C12 17.749 11.7314 17.4804 11.4 17.4804C11.0687 17.4804 10.8 17.749 10.8 18.0804C10.8 19.4059 11.8746 20.4804 13.2 20.4804C13.9169 20.4804 14.5603 20.1662 15 19.6679C15.4398 20.1662 16.0832 20.4804 16.8 20.4804C17.5582 20.4804 18.2346 20.1281 18.6734 19.5807C19.0027 19.1699 19.2 18.6474 19.2 18.0804C19.2 17.749 18.9314 17.4804 18.6 17.4804C18.2687 17.4804 18 17.749 18 18.0804C18 18.3648 17.9019 18.6246 17.7371 18.8301C17.5162 19.1057 17.1787 19.2804 16.8 19.2804C16.1373 19.2804 15.6 18.7431 15.6 18.0804C15.6 17.749 15.3314 17.4804 15 17.4804C14.6687 17.4804 14.4 17.749 14.4 18.0804C14.4 18.7431 13.8628 19.2804 13.2 19.2804C12.5373 19.2804 12 18.7431 12 18.0804Z" fill="white"/>
<path fill-rule="evenodd" clip-rule="evenodd" d="M12.9104 16.9229C12.9104 16.2601 13.4477 15.7229 14.1104 15.7229H15.9104C16.5731 15.7229 17.1104 16.2601 17.1104 16.9229C17.1104 17.5856 16.5731 18.1229 15.9104 18.1229H14.1104C13.4477 18.1229 12.9104 17.5856 12.9104 16.9229Z" fill="white"/>
</svg>
