<svg width="24" height="24" viewBox="0 0 24 24" fill="none" xmlns="http://www.w3.org/2000/svg">
<g id="Group 152">
<path id="Rectangle 9" d="M6.02002 6.48C6.02002 3.17734 8.69736 0.5 12 0.5C15.3027 0.5 17.98 3.17734 17.98 6.48V17.52C17.98 20.8227 15.3027 23.5 12 23.5C8.69736 23.5 6.02002 20.8227 6.02002 17.52V6.48Z" fill="white" stroke="#808086"/>
<path id="Rectangle 7" d="M16.1286 1.74319C15.9366 1.21224 16.4199 0.684183 16.9657 0.82845L18.8294 1.32104C21.5823 2.04864 23.5 4.53896 23.5 7.38638V11.2937C23.5 12.6006 22.4405 13.66 21.1337 13.66C19.8268 13.66 18.7674 12.6006 18.7674 11.2937V9.88028C18.7674 9.32622 18.6711 8.77638 18.4827 8.25532L16.1286 1.74319Z" fill="white" stroke="#808086"/>
<path id="Rectangle 8" d="M7.87144 1.74319C8.06338 1.21224 7.5801 0.684183 7.03426 0.82845L5.17055 1.32104C2.41767 2.04864 0.500032 4.53897 0.500032 7.38638V11.2937C0.500032 12.6006 1.55945 13.66 2.86632 13.66C4.17318 13.66 5.2326 12.6006 5.2326 11.2937V9.88028C5.2326 9.32622 5.32894 8.77638 5.5173 8.25532L7.87144 1.74319Z" fill="white" stroke="#808086"/>
<path id="Rectangle 6" d="M4.33997 7.2C4.33997 3.49969 7.33966 0.5 11.04 0.5H12.96C16.6603 0.5 19.66 3.49969 19.66 7.2V13.2C19.66 15.8809 18.6915 17.8522 17.2717 19.1565C15.8439 20.4681 13.9289 21.1329 12 21.1329C10.071 21.1329 8.15601 20.4681 6.72822 19.1565C5.30839 17.8522 4.33997 15.8809 4.33997 13.2V7.2Z" fill="white" stroke="#808086"/>
<path id="Intersect" d="M19.66 7.2V13.0955C17.024 13.3879 14.3028 12.355 12.5395 10.1215C10.2756 7.25408 10.3034 3.30966 12.3648 0.5H12.96C16.6603 0.5 19.66 3.49969 19.66 7.2Z" stroke="#808086" stroke-linecap="round"/>
<g id="Union">
<path d="M8.63995 9.6C9.43524 9.6 10.08 8.95529 10.08 8.16C10.08 7.36471 9.43524 6.72 8.63995 6.72C7.84466 6.72 7.19995 7.36471 7.19995 8.16C7.19995 8.95529 7.84466 9.6 8.63995 9.6Z" fill="#808086"/>
<path d="M15.1199 9.6C15.9152 9.6 16.5599 8.95529 16.5599 8.16C16.5599 7.36471 15.9152 6.72 15.1199 6.72C14.3247 6.72 13.68 7.36471 13.68 8.16C13.68 8.95529 14.3247 9.6 15.1199 9.6Z" fill="#808086"/>
</g>
<g id="Union_2">
<path d="M9.60001 14.16C9.60001 13.8949 9.38511 13.68 9.12001 13.68C8.85492 13.68 8.64001 13.8949 8.64001 14.16C8.64001 15.2204 9.49963 16.08 10.56 16.08C11.1335 16.08 11.6482 15.8286 12 15.43C12.3518 15.8286 12.8666 16.08 13.44 16.08C14.0466 16.08 14.5876 15.7982 14.9387 15.3602C15.2021 15.0316 15.36 14.6136 15.36 14.16C15.36 13.8949 15.1451 13.68 14.88 13.68C14.6149 13.68 14.4 13.8949 14.4 14.16C14.4 14.3875 14.3215 14.5953 14.1897 14.7598C14.0129 14.9802 13.743 15.12 13.44 15.12C12.9098 15.12 12.48 14.6902 12.48 14.16C12.48 13.8949 12.2651 13.68 12 13.68C11.7349 13.68 11.52 13.8949 11.52 14.16C11.52 14.6902 11.0902 15.12 10.56 15.12C10.0298 15.12 9.60001 14.6902 9.60001 14.16Z" fill="#808086"/>
</g>
<path id="Vector 1 (Stroke)" fill-rule="evenodd" clip-rule="evenodd" d="M10.3284 13.234C10.3284 12.7038 10.7582 12.274 11.2884 12.274H12.7284C13.2586 12.274 13.6884 12.7038 13.6884 13.234C13.6884 13.7641 13.2586 14.194 12.7284 14.194H11.2884C10.7582 14.194 10.3284 13.7641 10.3284 13.234Z" fill="#808086"/>
</g>
</svg>
