<svg width="36" height="36" viewBox="0 0 36 36" fill="none" xmlns="http://www.w3.org/2000/svg">
<g id="Icon / 24 px / PawPrint ">
<g id="Icon">
<g id="Vector">
<path d="M29.8125 18C31.3658 18 32.625 16.7408 32.625 15.1875C32.625 13.6342 31.3658 12.375 29.8125 12.375C28.2592 12.375 27 13.6342 27 15.1875C27 16.7408 28.2592 18 29.8125 18Z" stroke="#08878E" stroke-width="3" stroke-linecap="round" stroke-linejoin="round"/>
<path d="M6.1875 18C7.7408 18 9 16.7408 9 15.1875C9 13.6342 7.7408 12.375 6.1875 12.375C4.6342 12.375 3.375 13.6342 3.375 15.1875C3.375 16.7408 4.6342 18 6.1875 18Z" stroke="#08878E" stroke-width="3" stroke-linecap="round" stroke-linejoin="round"/>
<path d="M25.7675 21.9169C24.3565 21.1332 23.312 19.824 22.8612 18.2742C22.5553 17.2216 21.9158 16.2969 21.0392 15.6389C20.1626 14.9808 19.0961 14.625 18 14.625C16.9039 14.625 15.8374 14.9808 14.9608 15.6389C14.0842 16.2969 13.4448 17.2218 13.1389 18.2743C12.6881 19.8242 11.6435 21.1332 10.2325 21.9169C9.21605 22.4679 8.45062 23.3888 8.09483 24.4889C7.73905 25.5889 7.82021 26.7837 8.32148 27.8255C8.82275 28.8673 9.7057 29.6763 10.7873 30.0848C11.8689 30.4932 13.0662 30.4698 14.131 30.0194C16.6102 29.0028 19.3898 29.0028 21.869 30.0194C22.9339 30.4703 24.1315 30.494 25.2134 30.0857C26.2953 29.6774 27.1786 28.8682 27.6799 27.8262C28.1813 26.7841 28.2624 25.589 27.9063 24.4888C27.5503 23.3886 26.7844 22.4676 25.7675 21.9169Z" stroke="#08878E" stroke-width="3" stroke-linecap="round" stroke-linejoin="round"/>
<path d="M23.0625 11.25C24.6158 11.25 25.875 9.9908 25.875 8.4375C25.875 6.8842 24.6158 5.625 23.0625 5.625C21.5092 5.625 20.25 6.8842 20.25 8.4375C20.25 9.9908 21.5092 11.25 23.0625 11.25Z" stroke="#08878E" stroke-width="3" stroke-linecap="round" stroke-linejoin="round"/>
<path d="M12.9375 11.25C14.4908 11.25 15.75 9.9908 15.75 8.4375C15.75 6.8842 14.4908 5.625 12.9375 5.625C11.3842 5.625 10.125 6.8842 10.125 8.4375C10.125 9.9908 11.3842 11.25 12.9375 11.25Z" stroke="#08878E" stroke-width="3" stroke-linecap="round" stroke-linejoin="round"/>
</g>
</g>
</g>
</svg>
