<svg width="132" height="132" viewBox="0 0 132 132" fill="none" xmlns="http://www.w3.org/2000/svg">
<path d="M99 111.892C99 113.463 97.2722 114.42 95.9401 113.588L67.0562 95.5374C66.4077 95.1321 65.5847 95.1322 64.9362 95.5376L36.0601 113.587C34.728 114.42 33 113.462 33 111.891V24.75C33 23.656 33.4346 22.6068 34.2082 21.8332C34.9818 21.0596 36.031 20.625 37.125 20.625H94.875C95.969 20.625 97.0182 21.0596 97.7918 21.8332C98.5654 22.6068 99 23.656 99 24.75V111.892Z" fill="#08878E"/>
<path d="M70.5 33.25C70.5 34.4435 70.0259 35.5881 69.182 36.432C68.3381 37.2759 67.1935 37.75 66 37.75M66 37.75C63.5027 36.2517 60.6346 36.4163 58.997 36.6936C58.582 36.7644 58.1555 36.7174 57.7659 36.5581C57.3762 36.3987 57.039 36.1334 56.7925 35.7921L55.5 34L65.25 28V25H66C67.1927 25 68.3735 25.2371 69.4737 25.6974C70.574 26.1577 71.5718 26.8322 72.4091 27.6815C73.2464 28.5309 73.9066 29.5381 74.3512 30.6449C74.7959 31.7516 75.0161 32.9356 74.9991 34.1282C74.9319 38.9548 71.0083 42.9028 66.1821 42.9982C63.9054 43.0475 61.6952 42.2288 60 40.7083M66 37.75L62.6968 42.3745" stroke="white" stroke-linecap="round" stroke-linejoin="round"/>
<path d="M65.625 32.5C66.2463 32.5 66.75 31.9963 66.75 31.375C66.75 30.7537 66.2463 30.25 65.625 30.25C65.0037 30.25 64.5 30.7537 64.5 31.375C64.5 31.9963 65.0037 32.5 65.625 32.5Z" fill="white"/>
<path d="M45.8155 63V57.89C45.8155 57.2833 45.6755 56.854 45.3955 56.602C45.1248 56.3407 44.6675 56.21 44.0235 56.21C43.5568 56.21 43.1088 56.2753 42.6795 56.406C42.2595 56.5273 41.8582 56.7 41.4755 56.924V55.762C41.7462 55.622 42.1102 55.4913 42.5675 55.37C43.0342 55.2487 43.5568 55.188 44.1355 55.188C44.6302 55.188 45.0502 55.244 45.3955 55.356C45.7502 55.468 46.0115 55.6733 46.1795 55.972C46.5062 56.1213 46.7302 56.3547 46.8515 56.672C46.9822 56.9893 47.0475 57.372 47.0475 57.82V63H45.8155ZM43.4075 63.14C42.5862 63.14 41.9562 62.9533 41.5175 62.58C41.0882 62.1973 40.8735 61.6513 40.8735 60.942C40.8735 60.1673 41.1535 59.57 41.7135 59.15C42.2828 58.73 43.2022 58.4827 44.4715 58.408L46.0675 58.31V59.346L44.6395 59.444C43.6875 59.5093 43.0295 59.6587 42.6655 59.892C42.3108 60.1253 42.1335 60.466 42.1335 60.914C42.1335 61.334 42.2642 61.642 42.5255 61.838C42.7962 62.034 43.1695 62.132 43.6455 62.132C43.8042 62.132 43.9488 62.1227 44.0795 62.104C44.2102 62.076 44.3362 62.0433 44.4575 62.006L44.6535 62.944C44.4762 63.0093 44.2802 63.056 44.0655 63.084C43.8602 63.1213 43.6408 63.14 43.4075 63.14ZM46.1375 56.406L45.4375 55.748C45.6802 55.7107 45.9088 55.6173 46.1235 55.468C46.3382 55.3187 46.4455 55.104 46.4455 54.824H47.6635C47.6635 55.1133 47.5935 55.37 47.4535 55.594C47.3228 55.8087 47.1408 55.986 46.9075 56.126C46.6742 56.2567 46.4175 56.35 46.1375 56.406ZM45.2709 54.11C44.8789 54.11 44.5663 54.054 44.3329 53.942C44.0996 53.83 43.9316 53.6853 43.8289 53.508C43.7169 53.3307 43.6609 53.144 43.6609 52.948C43.6609 52.808 43.6843 52.6587 43.7309 52.5C43.7683 52.332 43.8196 52.1967 43.8849 52.094L44.9349 52.276C44.9163 52.3133 44.8976 52.3787 44.8789 52.472C44.8603 52.556 44.8509 52.6353 44.8509 52.71C44.8509 52.8313 44.8883 52.9387 44.9629 53.032C45.0376 53.116 45.1636 53.158 45.3409 53.158H48.8829V54.11H45.2709ZM52.0492 63.14C51.2652 63.14 50.6586 62.9627 50.2292 62.608C49.7999 62.244 49.5012 61.754 49.3332 61.138C49.1652 60.5127 49.0812 59.8033 49.0812 59.01C49.0812 58.0953 49.1652 57.358 49.3332 56.798C49.5106 56.238 49.7672 55.832 50.1032 55.58C50.4392 55.3187 50.8499 55.188 51.3352 55.188C51.6619 55.188 51.9372 55.244 52.1612 55.356C52.3946 55.468 52.5579 55.6547 52.6512 55.916H52.7072C52.8006 55.6453 52.9686 55.4587 53.2112 55.356C53.4539 55.244 53.7386 55.188 54.0652 55.188C54.6719 55.188 55.1386 55.3513 55.4652 55.678C55.8012 55.9953 55.9692 56.4853 55.9692 57.148V63H54.7232V57.162C54.7232 56.798 54.6439 56.5507 54.4852 56.42C54.3266 56.2893 54.1259 56.224 53.8832 56.224C53.6126 56.224 53.4119 56.2893 53.2812 56.42C53.1599 56.5507 53.0852 56.7653 53.0572 57.064H52.2732C52.2359 56.7373 52.1379 56.518 51.9792 56.406C51.8206 56.2847 51.6432 56.224 51.4472 56.224C51.0739 56.224 50.7939 56.4433 50.6072 56.882C50.4206 57.3113 50.3272 58.0253 50.3272 59.024C50.3272 59.668 50.3739 60.2187 50.4672 60.676C50.5699 61.1333 50.7566 61.488 51.0272 61.74C51.2979 61.9827 51.6899 62.104 52.2032 62.104C52.3899 62.104 52.5439 62.0947 52.6652 62.076C52.7866 62.0573 52.9032 62.034 53.0152 62.006L53.1412 62.958C53.0012 63.0233 52.8332 63.07 52.6372 63.098C52.4412 63.126 52.2452 63.14 52.0492 63.14ZM59.7736 63.14C59.4096 63.14 59.0549 63.1027 58.7096 63.028C58.3736 62.9533 58.0143 62.8133 57.6316 62.608L58.0236 61.656C58.2289 61.7773 58.4623 61.8847 58.7236 61.978C58.9849 62.062 59.2883 62.104 59.6336 62.104C60.3243 62.104 60.8609 61.852 61.2436 61.348C61.6356 60.8347 61.8316 60.0973 61.8316 59.136C61.8316 58.1933 61.6309 57.4747 61.2296 56.98C60.8376 56.476 60.2309 56.224 59.4096 56.224C59.1109 56.224 58.8076 56.2567 58.4996 56.322C58.1916 56.3873 57.9209 56.4853 57.6876 56.616V55.566C57.9583 55.426 58.2523 55.328 58.5696 55.272C58.8963 55.216 59.2229 55.188 59.5496 55.188C60.3896 55.188 61.0709 55.356 61.5936 55.692C62.1163 56.0187 62.4989 56.476 62.7416 57.064C62.9843 57.652 63.1056 58.3427 63.1056 59.136C63.1056 60.368 62.8256 61.3433 62.2656 62.062C61.7149 62.7807 60.8843 63.14 59.7736 63.14ZM60.585 54.516C60.5196 54.4133 60.4683 54.2827 60.431 54.124C60.3843 53.956 60.361 53.7927 60.361 53.634C60.361 53.438 60.403 53.256 60.487 53.088C60.571 52.9107 60.7203 52.766 60.935 52.654C61.1496 52.542 61.4483 52.486 61.831 52.486H63.749V53.452H62.153C61.9663 53.452 61.817 53.4893 61.705 53.564C61.593 53.6293 61.537 53.746 61.537 53.914C61.537 53.9793 61.551 54.0493 61.579 54.124C61.5976 54.1987 61.6256 54.2733 61.663 54.348L60.585 54.516ZM66.8602 63.14C66.6082 63.14 66.3656 63.098 66.1322 63.014C65.8989 62.93 65.7076 62.7807 65.5582 62.566C65.4089 62.3513 65.3342 62.0527 65.3342 61.67V55.328H66.5802V61.516C66.5802 61.7307 66.6269 61.8847 66.7202 61.978C66.8136 62.0713 66.9629 62.118 67.1682 62.118C67.2522 62.118 67.3409 62.1087 67.4342 62.09C67.5276 62.0713 67.6162 62.048 67.7002 62.02L67.8682 62.93C67.6909 63.014 67.5182 63.07 67.3502 63.098C67.1822 63.126 67.0189 63.14 66.8602 63.14ZM73.6104 63V57.89C73.6104 57.2833 73.4704 56.854 73.1904 56.602C72.9198 56.3407 72.4624 56.21 71.8184 56.21C71.3518 56.21 70.9038 56.2753 70.4744 56.406C70.0544 56.5273 69.6531 56.7 69.2704 56.924V55.762C69.5411 55.622 69.9051 55.4913 70.3624 55.37C70.8291 55.2487 71.3518 55.188 71.9304 55.188C72.4251 55.188 72.8544 55.244 73.2184 55.356C73.5824 55.4587 73.8811 55.6173 74.1144 55.832C74.3571 56.0467 74.5391 56.322 74.6604 56.658C74.7818 56.9847 74.8424 57.372 74.8424 57.82V63H73.6104ZM71.2024 63.14C70.3811 63.14 69.7511 62.9533 69.3124 62.58C68.8831 62.1973 68.6684 61.6513 68.6684 60.942C68.6684 60.1673 68.9484 59.57 69.5084 59.15C70.0778 58.73 70.9971 58.4827 72.2664 58.408L73.8624 58.31V59.346L72.4344 59.444C71.4824 59.5093 70.8244 59.6587 70.4604 59.892C70.1058 60.1253 69.9284 60.466 69.9284 60.914C69.9284 61.334 70.0591 61.642 70.3204 61.838C70.5911 62.034 70.9644 62.132 71.4404 62.132C71.5991 62.132 71.7438 62.1227 71.8744 62.104C72.0051 62.076 72.1311 62.0433 72.2524 62.006L72.4484 62.944C72.2711 63.0093 72.0751 63.056 71.8604 63.084C71.6551 63.1213 71.4358 63.14 71.2024 63.14ZM68.6888 54.11V53.564L69.7108 53.116H74.6388V54.11H68.6888ZM73.4768 53.564V51.982H74.6528V53.564H73.4768ZM72.2728 51.156V50.666C72.3941 50.638 72.5248 50.596 72.6648 50.54C72.8048 50.484 72.9261 50.414 73.0288 50.33C73.1314 50.2367 73.1828 50.12 73.1828 49.98C73.1828 49.8773 73.1548 49.798 73.0988 49.742C73.0428 49.686 72.9634 49.658 72.8608 49.658C72.7861 49.658 72.7114 49.672 72.6368 49.7C72.5528 49.7187 72.4734 49.7513 72.3988 49.798L72.1468 49.154C72.3148 49.042 72.5061 48.9673 72.7208 48.93C72.9261 48.8927 73.0894 48.874 73.2108 48.874C73.4534 48.874 73.6728 48.9393 73.8688 49.07C74.0648 49.1913 74.1628 49.4013 74.1628 49.7C74.1628 49.8213 74.1394 49.9613 74.0928 50.12C74.0368 50.2693 73.9248 50.3907 73.7568 50.484L73.6728 50.218H75.8008V51.156H72.2728ZM80.0685 63.126C79.3125 63.126 78.7058 63.028 78.2485 62.832C77.8005 62.636 77.4738 62.3607 77.2685 62.006C77.0725 61.6513 76.9745 61.2313 76.9745 60.746C76.9745 60.3167 77.0351 59.976 77.1565 59.724C77.2871 59.4627 77.4458 59.2713 77.6325 59.15C77.8285 59.0287 78.0291 58.9493 78.2345 58.912V58.856C78.0478 58.8 77.8518 58.7067 77.6465 58.576C77.4411 58.4453 77.2685 58.2633 77.1285 58.03C76.9978 57.7967 76.9325 57.5027 76.9325 57.148C76.9325 56.8213 77.0071 56.5133 77.1565 56.224C77.3058 55.9347 77.5485 55.6967 77.8845 55.51C78.2205 55.3233 78.6638 55.23 79.2145 55.23C79.4385 55.23 79.6718 55.2487 79.9145 55.286C80.1571 55.314 80.3438 55.3653 80.4745 55.44L80.2505 56.406C80.1478 56.3687 80.0125 56.336 79.8445 56.308C79.6858 56.2707 79.5178 56.252 79.3405 56.252C78.9485 56.252 78.6591 56.3453 78.4725 56.532C78.2858 56.7093 78.1925 56.9473 78.1925 57.246C78.1925 57.5727 78.2718 57.82 78.4305 57.988C78.5985 58.156 78.8085 58.2727 79.0605 58.338C79.3218 58.394 79.5925 58.422 79.8725 58.422H80.1385V59.332H79.8725C79.3125 59.332 78.8971 59.4347 78.6265 59.64C78.3651 59.836 78.2345 60.1673 78.2345 60.634C78.2345 60.9047 78.2858 61.152 78.3885 61.376C78.5005 61.6 78.6871 61.7773 78.9485 61.908C79.2191 62.0387 79.5925 62.104 80.0685 62.104C80.5445 62.104 80.9131 62.0387 81.1745 61.908C81.4451 61.7773 81.6365 61.5907 81.7485 61.348C81.8605 61.096 81.9165 60.7973 81.9165 60.452V55.328H83.1625V60.368C83.1625 61.348 82.9105 62.0527 82.4065 62.482C81.9118 62.9113 81.1325 63.126 80.0685 63.126ZM86.687 63L84.293 55.328H85.553L87.625 61.922H87.793C88.017 61.922 88.2363 61.8707 88.451 61.768C88.6656 61.656 88.8476 61.516 88.997 61.348C89.277 61.04 89.4823 60.6527 89.613 60.186C89.7436 59.71 89.809 59.2433 89.809 58.786C89.809 58.0113 89.6316 57.4047 89.277 56.966C88.9316 56.518 88.451 56.294 87.835 56.294C87.7136 56.294 87.5923 56.3033 87.471 56.322C87.359 56.3407 87.2656 56.364 87.191 56.392L86.883 55.398C87.079 55.342 87.261 55.3047 87.429 55.286C87.6063 55.2673 87.765 55.258 87.905 55.258C88.3716 55.258 88.787 55.328 89.151 55.468C89.5243 55.5987 89.8416 55.7947 90.103 56.056C90.4296 56.3733 90.6676 56.77 90.817 57.246C90.9756 57.722 91.055 58.2493 91.055 58.828C91.055 59.556 90.943 60.2047 90.719 60.774C90.495 61.334 90.215 61.782 89.879 62.118C89.6083 62.3887 89.277 62.6033 88.885 62.762C88.493 62.9207 87.9936 63 87.387 63H86.687ZM53.9838 84.14C53.0971 84.14 52.4111 83.93 51.9258 83.51C51.4498 83.0807 51.2118 82.4413 51.2118 81.592V80.738C51.2118 80.2713 51.2771 79.9027 51.4078 79.632C51.5385 79.3613 51.6785 79.128 51.8278 78.932C51.9865 78.7173 52.1218 78.5307 52.2338 78.372C52.3551 78.2133 52.4158 78.022 52.4158 77.798C52.4158 77.602 52.3645 77.462 52.2618 77.378C52.1685 77.294 52.0471 77.252 51.8978 77.252C51.7858 77.252 51.6645 77.2707 51.5338 77.308C51.4125 77.3453 51.2911 77.392 51.1698 77.448L50.8898 76.552C51.0578 76.44 51.2631 76.3607 51.5058 76.314C51.7578 76.2673 51.9771 76.244 52.1638 76.244C52.5091 76.244 52.7845 76.3047 52.9898 76.426C53.2045 76.5473 53.3585 76.7153 53.4518 76.93C53.5451 77.1353 53.5918 77.378 53.5918 77.658C53.5918 78.0033 53.5311 78.288 53.4098 78.512C53.2978 78.736 53.1625 78.9553 53.0038 79.17C52.8451 79.4033 52.7145 79.6273 52.6118 79.842C52.5091 80.0567 52.4578 80.3367 52.4578 80.682V81.508C52.4578 81.9373 52.5278 82.2687 52.6678 82.502C52.8078 82.7353 52.9945 82.8987 53.2278 82.992C53.4611 83.076 53.7131 83.118 53.9838 83.118C54.4505 83.118 54.8051 83.0107 55.0478 82.796C55.2905 82.572 55.4118 82.2313 55.4118 81.774V79.814C55.4118 79.4687 55.3325 79.2073 55.1738 79.03C55.0151 78.8433 54.7585 78.75 54.4038 78.75H54.3478V77.952H54.4178C54.8005 77.952 55.0711 77.8633 55.2298 77.686C55.3885 77.5087 55.4818 77.294 55.5098 77.042C55.5471 76.7807 55.5658 76.5427 55.5658 76.328H56.8118C56.8118 76.8227 56.7511 77.2427 56.6298 77.588C56.5085 77.9333 56.2331 78.1853 55.8038 78.344V78.4C56.0651 78.4653 56.2518 78.5773 56.3638 78.736C56.4851 78.8853 56.5645 79.058 56.6018 79.254C56.6391 79.4407 56.6578 79.6227 56.6578 79.8V81.844C56.6578 82.5627 56.4338 83.1273 55.9858 83.538C55.5378 83.9393 54.8705 84.14 53.9838 84.14ZM62.6611 84.14C62.0637 84.14 61.5457 84.0233 61.1071 83.79C60.6777 83.5473 60.3837 83.2113 60.2251 82.782H60.1691L60.0991 84H59.0771V76.328H60.3231V80.766C60.3231 81.2327 60.4024 81.6433 60.5611 81.998C60.7291 82.3433 60.9671 82.614 61.2751 82.81C61.5924 82.9967 61.9704 83.09 62.4091 83.09C62.9597 83.09 63.3704 82.9453 63.6411 82.656C63.9117 82.3667 64.0471 81.942 64.0471 81.382V76.328H65.2931V81.466C65.2931 82.082 65.1857 82.586 64.9711 82.978C64.7657 83.37 64.4671 83.664 64.0751 83.86C63.6831 84.0467 63.2117 84.14 62.6611 84.14ZM69.7207 84.14C69.17 84.14 68.6567 84.0887 68.1807 83.986C67.714 83.874 67.3173 83.7433 66.9907 83.594L67.3547 82.586C67.5507 82.6607 67.7747 82.74 68.0267 82.824C68.2787 82.908 68.5493 82.978 68.8387 83.034C69.1373 83.0807 69.4407 83.104 69.7487 83.104C70.2433 83.104 70.654 83.0107 70.9807 82.824C71.3073 82.6373 71.4707 82.3667 71.4707 82.012C71.4707 81.7973 71.41 81.6153 71.2887 81.466C71.1767 81.3073 70.9993 81.1627 70.7567 81.032C70.514 80.9013 70.2013 80.7753 69.8187 80.654C69.2307 80.4673 68.7313 80.2713 68.3207 80.066C67.9193 79.8513 67.6113 79.5993 67.3967 79.31C67.1913 79.0113 67.0887 78.6427 67.0887 78.204C67.0887 77.812 67.1913 77.4667 67.3967 77.168C67.6113 76.86 67.938 76.622 68.3767 76.454C68.8247 76.2767 69.394 76.188 70.0847 76.188C70.5327 76.188 70.9527 76.23 71.3447 76.314C71.746 76.3887 72.0587 76.496 72.2827 76.636V77.686C72.124 77.6113 71.9233 77.5367 71.6807 77.462C71.4473 77.3873 71.1907 77.3267 70.9107 77.28C70.6307 77.2333 70.3413 77.21 70.0427 77.21C69.4173 77.21 68.974 77.308 68.7127 77.504C68.4607 77.6907 68.3347 77.9053 68.3347 78.148C68.3347 78.3533 68.3907 78.526 68.5027 78.666C68.624 78.806 68.8247 78.9413 69.1047 79.072C69.394 79.2027 69.7813 79.352 70.2667 79.52C70.7147 79.6693 71.1253 79.842 71.4987 80.038C71.872 80.234 72.166 80.4813 72.3807 80.78C72.6047 81.0693 72.7167 81.4427 72.7167 81.9C72.7167 82.292 72.6187 82.6607 72.4227 83.006C72.236 83.342 71.9233 83.6173 71.4847 83.832C71.046 84.0373 70.458 84.14 69.7207 84.14ZM78.0966 84.14C77.4993 84.14 76.9813 84.0233 76.5426 83.79C76.1133 83.5473 75.8193 83.2113 75.6606 82.782H75.6046L75.5346 84H74.5126V76.328H75.7586V80.766C75.7586 81.2327 75.8379 81.6433 75.9966 81.998C76.1646 82.3433 76.4026 82.614 76.7106 82.81C77.0279 82.9967 77.4059 83.09 77.8446 83.09C78.3953 83.09 78.8059 82.9453 79.0766 82.656C79.3473 82.3667 79.4826 81.942 79.4826 81.382V76.328H80.7286V81.466C80.7286 82.082 80.6213 82.586 80.4066 82.978C80.2013 83.37 79.9026 83.664 79.5106 83.86C79.1186 84.0467 78.6473 84.14 78.0966 84.14Z" fill="white"/>
</svg>
