<svg width="20" height="20" viewBox="0 0 20 20" fill="none" xmlns="http://www.w3.org/2000/svg">
<path id="Vector" d="M19.5 10C19.5 15.2479 15.2463 19.5 10 19.5C4.75366 19.5 0.5 15.2479 0.5 10C0.5 4.7552 4.75366 0.5 10 0.5C15.2463 0.5 19.5 4.7552 19.5 10ZM10.2549 3.64113C8.16734 3.64113 6.83589 4.52053 5.79035 6.08347C5.6549 6.28596 5.70022 6.55905 5.89435 6.70626L7.22355 7.7141C7.42293 7.8653 7.70701 7.82933 7.86193 7.63281C8.54623 6.76487 9.01545 6.26156 10.057 6.26156C10.8396 6.26156 11.8075 6.76521 11.8075 7.52406C11.8075 8.09774 11.3339 8.39235 10.5613 8.82556C9.66015 9.33071 8.46774 9.95943 8.46774 11.5323V11.6855C8.46774 11.9393 8.67356 12.1452 8.92742 12.1452H11.0726C11.3264 12.1452 11.5323 11.9393 11.5323 11.6855V11.6344C11.5323 10.5441 14.7188 10.4987 14.7188 7.54839C14.7188 5.32654 12.4141 3.64113 10.2549 3.64113ZM10 13.1411C9.02836 13.1411 8.2379 13.9316 8.2379 14.9032C8.2379 15.8748 9.02836 16.6653 10 16.6653C10.9716 16.6653 11.7621 15.8748 11.7621 14.9032C11.7621 13.9316 10.9716 13.1411 10 13.1411Z" fill="#08878E"/>
</svg>
