<svg width="32" height="33" viewBox="0 0 32 33" fill="none" xmlns="http://www.w3.org/2000/svg">
<g id="Icon / 24 px / InstagramLogo ">
<g id="Icon">
<path id="Vector" d="M20.25 16.5308C20.25 18.878 18.3472 20.7808 16 20.7808V22.2808C19.1756 22.2808 21.75 19.7064 21.75 16.5308H20.25ZM16 20.7808C13.6528 20.7808 11.75 18.878 11.75 16.5308H10.25C10.25 19.7064 12.8244 22.2808 16 22.2808V20.7808ZM11.75 16.5308C11.75 14.1836 13.6528 12.2808 16 12.2808V10.7808C12.8244 10.7808 10.25 13.3551 10.25 16.5308H11.75ZM16 12.2808C18.3472 12.2808 20.25 14.1836 20.25 16.5308H21.75C21.75 13.3551 19.1756 10.7808 16 10.7808V12.2808ZM10.5 5.78076H21.5V4.28076H10.5V5.78076ZM21.5 5.78076C24.3995 5.78076 26.75 8.13127 26.75 11.0308H28.25C28.25 7.30284 25.2279 4.28076 21.5 4.28076V5.78076ZM26.75 11.0308V22.0308H28.25V11.0308H26.75ZM26.75 22.0308C26.75 24.9303 24.3995 27.2808 21.5 27.2808V28.7808C25.2279 28.7808 28.25 25.7587 28.25 22.0308H26.75ZM21.5 27.2808H10.5V28.7808H21.5V27.2808ZM10.5 27.2808C7.60051 27.2808 5.25 24.9303 5.25 22.0308H3.75C3.75 25.7587 6.77208 28.7808 10.5 28.7808V27.2808ZM5.25 22.0308V11.0308H3.75V22.0308H5.25ZM5.25 11.0308C5.25 8.13127 7.60051 5.78076 10.5 5.78076V4.28076C6.77208 4.28076 3.75 7.30284 3.75 11.0308H5.25Z" fill="white"/>
<path id="Vector_2" d="M22.5 11.5308C23.3284 11.5308 24 10.8592 24 10.0308C24 9.20233 23.3284 8.53076 22.5 8.53076C21.6716 8.53076 21 9.20233 21 10.0308C21 10.8592 21.6716 11.5308 22.5 11.5308Z" fill="white"/>
</g>
</g>
</svg>
