<svg xmlns="http://www.w3.org/2000/svg" width="857" height="857" viewBox="0 0 857 857" version="1.1"><path d="M 581 160.964 C 543.989 167.714, 508.917 188.041, 473.601 223.209 C 463.508 233.260, 455.655 240.282, 454.101 240.647 C 452.671 240.983, 450.375 242.273, 449 243.515 C 447.625 244.756, 445.150 246.455, 443.500 247.291 C 439.296 249.420, 436.450 252.729, 433.937 258.410 C 431.113 264.794, 431.739 270.200, 435.769 274.231 C 444.456 282.918, 460.604 273.819, 461.786 259.571 C 462.170 254.941, 462.562 254.061, 464.359 253.804 C 466.926 253.436, 467.643 250.570, 465.956 247.419 C 464.824 245.303, 465.156 244.593, 469.756 239.300 C 478.423 229.326, 499.086 209.709, 509 202.042 C 547.464 172.296, 585.072 159.690, 618.119 165.465 C 639.042 169.121, 654.627 177.562, 671.624 194.444 C 699.038 221.674, 714.502 260.619, 720.080 316.484 C 721.578 331.490, 720.706 373.455, 718.531 391 C 708.760 469.821, 676.988 549.295, 631.335 609.110 C 625.105 617.273, 624.002 619.306, 624.015 622.610 C 624.024 624.750, 624.450 627.163, 624.963 627.974 C 626.241 629.994, 628.926 627.365, 639.738 613.502 C 701.115 534.811, 737.701 422.897, 732.987 328.259 C 731.221 292.797, 725.654 266.069, 714.479 239.395 C 706.496 220.340, 694.237 203.015, 677.585 187.252 C 663.689 174.098, 651.096 167.025, 633.119 162.278 C 619.767 158.752, 596.361 158.162, 581 160.964 M 239.102 211.045 C 198.870 214.272, 164.958 232.084, 146.057 259.916 C 136.343 274.221, 129.152 292.106, 125.317 311.500 C 123.065 322.890, 122.801 358.818, 124.868 372.500 C 134.062 433.337, 163.098 495.122, 210.400 554.500 C 225.155 573.023, 254.173 604, 256.769 604 C 258.566 604, 257.561 598.735, 254.957 594.500 C 253.942 592.850, 251.976 589.355, 250.589 586.733 C 249.201 584.111, 243.181 576.461, 237.211 569.733 C 197.640 525.136, 167.249 475.113, 150.600 427.174 C 135.628 384.062, 131.028 346.464, 136.629 313 C 145.166 262.003, 175.602 228.674, 223 218.419 C 233.214 216.209, 257.112 215.457, 270.046 216.939 C 299.759 220.344, 330.072 230.072, 363.216 246.840 C 379.074 254.863, 380.420 255.758, 381.495 259 C 382.265 261.324, 383.718 263.011, 385.819 264.021 C 387.794 264.971, 389.832 267.226, 391.242 270.021 C 395.163 277.798, 407.612 281.921, 414.180 277.618 C 419.434 274.175, 420.280 266.169, 415.970 260.689 C 413.262 257.246, 404.398 253, 399.919 253 C 397.044 253, 395.852 252.423, 394.517 250.385 C 393.046 248.140, 392.303 247.851, 389.263 248.345 C 386.244 248.835, 383.202 247.687, 368.611 240.552 C 349.004 230.964, 338.035 226.536, 321.316 221.458 C 292.546 212.722, 263.721 209.070, 239.102 211.045 M 87.500 437.345 C 71.132 442.786, 58.692 455.327, 53.851 471.263 C 51.324 479.585, 51.617 494.470, 54.466 502.484 C 62.835 526.022, 88.821 540.360, 112.500 534.504 C 119.649 532.736, 129.272 528.248, 128.776 526.913 C 128.624 526.506, 125.425 523.659, 121.668 520.587 L 114.835 515.001 105.065 515.641 C 96.031 516.233, 94.884 516.093, 89.852 513.790 C 79.036 508.838, 72.473 499.986, 71.318 488.792 C 69.145 467.741, 90.622 450.732, 110.879 457.460 C 116.777 459.419, 125.234 466.578, 127.959 471.919 C 130.330 476.567, 132.060 485.856, 131.359 490.175 C 130.850 493.312, 131.247 493.883, 137.843 499.508 C 141.707 502.804, 145.415 505.500, 146.084 505.500 C 149.525 505.500, 152.106 486.270, 150.111 475.500 C 147.395 460.837, 136.963 447.528, 122.656 440.471 C 115.088 436.739, 114.399 436.592, 103.156 436.309 C 95.393 436.113, 90.164 436.459, 87.500 437.345 M 97.827 459.016 C 83.753 460.761, 74 472.239, 74 487.056 C 74 496.579, 78.064 503.908, 86.263 509.168 C 92.532 513.192, 102.550 514.207, 109.559 511.530 C 114.508 509.641, 114.120 509.514, 120.162 514.993 C 121.075 515.822, 124 518.271, 126.662 520.436 C 137.001 528.846, 145.427 540.340, 149.965 552.223 C 154.184 563.272, 155.364 572.741, 154.423 588 C 154 594.875, 153.773 601.367, 153.919 602.426 C 154.296 605.150, 165.912 622.173, 166.954 621.528 C 167.428 621.235, 168.645 616.609, 169.658 611.248 C 171.087 603.686, 171.494 596.792, 171.474 580.500 L 171.448 559.500 168.126 550.500 C 161.206 531.752, 152.934 520.117, 135.405 504.480 C 130.155 499.797, 126.637 495.913, 126.833 495.018 C 127.016 494.183, 127.405 490.439, 127.699 486.698 C 128.609 475.084, 123.101 465.389, 113.242 461.247 C 106.789 458.537, 104.437 458.197, 97.827 459.016 M 151.577 613.007 C 150.251 616.629, 148 635.728, 148 643.362 C 148 664.831, 156.371 686.992, 169.893 701.322 C 174.327 706.021, 185.032 714.016, 190.750 716.898 C 193.132 718.099, 196.043 720.681, 197.371 722.771 C 203.067 731.734, 217.227 743.134, 228.500 747.834 C 247.194 755.626, 268.799 755.349, 293.494 747.002 C 298.145 745.430, 304.550 742.811, 307.726 741.183 C 344.622 722.265, 361.877 717.047, 378.321 719.834 C 394.008 722.492, 403.295 730.576, 412.751 749.808 L 418.500 761.500 426.405 761.795 C 430.753 761.957, 434.712 761.688, 435.204 761.196 C 436.392 760.008, 432.381 749.517, 425.957 737.011 C 418.764 723.008, 409.921 713.638, 398.749 708.180 C 388.805 703.322, 381.737 701.789, 369.629 701.864 C 352.795 701.969, 341.578 705.384, 312.987 719.112 C 302.806 724, 293.918 728, 293.237 728 C 292.557 728, 292 728.415, 292 728.922 C 292 731.090, 268.201 736.006, 257.808 735.985 C 245.088 735.959, 231.361 731.382, 223.060 724.397 L 219.822 721.673 228.836 718.454 C 240.946 714.130, 248.691 709.235, 255.944 701.320 C 263.250 693.347, 266.523 686.953, 268.683 676.435 C 270.025 669.901, 270.120 667.176, 269.221 661 C 267.867 651.704, 265.583 645.989, 263.237 646.032 C 262.281 646.050, 259.025 647.287, 256 648.782 C 249.851 651.821, 250.257 650.319, 251.603 665.022 C 251.943 668.738, 251.718 673.332, 251.081 675.699 C 249.553 681.372, 243.438 690.128, 238 694.429 C 231.623 699.473, 220.916 703.431, 213.543 703.469 L 207.586 703.500 205.724 698.516 C 204.586 695.471, 203.631 689.468, 203.270 683.091 C 202.691 672.866, 202.605 672.567, 199.089 668.633 C 193.208 662.051, 189.713 658.929, 188.630 659.290 C 186.666 659.945, 185.773 665.602, 185.637 678.249 C 185.551 686.238, 185.127 690.877, 184.500 690.674 C 182.814 690.127, 176.192 680.859, 172.587 674 C 167.458 664.241, 165.757 656.444, 165.606 642 L 165.476 629.500 160.760 623 C 152.695 611.884, 152.190 611.334, 151.577 613.007 M 219 625.882 C 215.975 626.859, 211.967 628.458, 210.093 629.436 C 202.096 633.610, 190.181 647.843, 191.419 651.744 C 192.291 654.493, 202.649 664.335, 203.874 663.578 C 204.462 663.215, 205.827 660.918, 206.908 658.475 C 210.003 651.479, 213.588 647.499, 219.771 644.196 C 226.343 640.685, 239.449 627.612, 238.604 625.410 C 237.823 623.375, 225.879 623.662, 219 625.882 M 293 630 C 291.900 631.100, 291 632.443, 291 632.985 C 291 634.029, 301.972 642.998, 303.250 642.999 C 304.825 643.001, 303.897 637.730, 301.483 632.967 C 298.689 627.452, 296.362 626.638, 293 630 M 592.250 651.944 C 588.442 655.121, 589.797 663.831, 593.722 661.397 C 594.973 660.621, 595.590 658.769, 595.802 655.147 C 596.131 649.541, 595.650 649.107, 592.250 651.944 M 335.035 657.934 C 332.410 662.840, 334.333 664.545, 354.284 674.992 C 365.922 681.087, 368.580 682.114, 371.360 681.592 C 373.171 681.253, 375.468 680.378, 376.465 679.649 C 378.094 678.458, 377.075 677.690, 366.389 672.051 C 359.850 668.601, 350.838 663.578, 346.361 660.889 C 341.885 658.200, 337.738 656, 337.146 656 C 336.555 656, 335.605 656.870, 335.035 657.934 M 547.956 679.750 C 547.903 684.350, 546.691 690.051, 544.501 696 C 541.644 703.765, 541.172 704, 528.460 704 C 517.628 704, 517.173 703.913, 515.615 701.535 C 511.920 695.895, 514.429 689.141, 521.080 686.822 C 524.961 685.469, 525.106 682.526, 521.250 683.366 C 511.533 685.485, 479.242 690.965, 473 691.554 C 462.869 692.512, 460.519 693.821, 456.444 700.775 C 456.014 701.508, 429.384 696.630, 421.175 694.315 C 413.788 692.231, 411.085 691.873, 408.175 692.592 C 405.978 693.135, 404.500 694.104, 404.500 695 C 404.500 697.004, 422.896 702.257, 442 705.709 C 453.194 707.731, 457.144 708.861, 459.327 710.664 C 462 712.873, 462.937 713, 476.556 713 C 494.014 713, 497.523 714.055, 501.865 720.610 C 506.419 727.485, 508.410 737.284, 508.458 753.064 L 508.500 766.629 504.262 775.192 C 499.356 785.105, 492.198 792.969, 483.957 797.500 C 479.218 800.105, 477.514 800.493, 471 800.444 C 462.732 800.383, 459.428 799.123, 452.216 793.281 C 447.473 789.438, 442.874 782.135, 440.391 774.500 C 439.496 771.750, 438.255 768.958, 437.632 768.296 C 436.434 767.022, 421.624 766.042, 420.504 767.163 C 419.662 768.005, 424.296 782.666, 427.512 789.333 C 431.465 797.525, 436.534 803.664, 443.779 809.032 C 452.491 815.486, 460.866 818.262, 471.500 818.220 C 485.403 818.165, 496.305 812.780, 508.339 800.024 C 520.736 786.882, 526.877 769.369, 528.858 741.500 C 530.203 722.586, 533.429 709.668, 537.651 706.290 C 539.218 705.036, 541 704.008, 541.612 704.005 C 543.496 703.997, 555.680 698.177, 557.388 696.470 C 558.581 695.277, 559 692.930, 559 687.449 L 559 680.041 555.040 678.020 C 549.196 675.039, 548.008 675.329, 547.956 679.750" stroke="none" fill="#d1091f" fill-rule="evenodd"/><path d="M 398.054 65.669 C 391.568 68.044, 384.521 75.507, 382.575 82.059 C 376.931 101.065, 388.099 117.537, 407.473 118.780 C 413.266 119.152, 415.526 118.829, 419.692 117.037 C 422.503 115.828, 425.817 113.760, 427.055 112.441 L 429.307 110.044 424.908 106.140 L 420.508 102.236 417.677 104.618 C 415.451 106.491, 413.680 107, 409.385 107 C 404.423 107, 403.542 106.645, 399.767 103.123 C 395.858 99.477, 395.589 98.868, 395.245 92.873 C 394.775 84.682, 396.908 80.409, 403.074 77.188 C 408.272 74.472, 413.773 74.717, 418.016 77.854 L 420.725 79.856 424.892 75.610 C 428.830 71.598, 428.961 71.278, 427.280 69.802 C 421.164 64.437, 406.916 62.422, 398.054 65.669 M 434 81.451 C 434 90.499, 434.496 100.214, 435.102 103.040 C 437.950 116.322, 453.907 123.016, 467.500 116.632 C 477.861 111.766, 479 108.536, 479 84.032 L 479 65 473.081 65 L 467.162 65 466.831 82.930 C 466.529 99.299, 466.317 101.104, 464.398 103.671 C 460.020 109.530, 451.609 108.911, 448.570 102.507 C 447.334 99.901, 447 95.566, 447 82.099 L 447 65 440.500 65 L 434 65 434 81.451 M 486 88.285 C 486 90.562, 486.558 90.786, 496.250 92.393 C 544.912 100.462, 595.765 121.960, 637 151.895 C 648.731 160.411, 666 175.150, 666 176.646 C 666 177.391, 666.392 178, 666.871 178 C 668.771 178, 686.504 195.808, 694.119 205.363 C 698.563 210.938, 704.081 217.567, 706.383 220.093 C 714.771 229.301, 730.722 254.504, 740.492 273.983 C 758.411 309.714, 769.673 347.340, 774.617 388 C 777.011 407.685, 777.025 445.183, 774.647 464.500 C 766.695 529.076, 742.037 588.225, 702.728 637.015 C 691.670 650.741, 670.194 672.576, 657.071 683.435 L 646.642 692.065 642.276 687.782 C 635.154 680.795, 632.476 673.453, 628.013 648.676 C 626.841 642.173, 625.695 634.973, 625.466 632.676 C 625.236 630.379, 624.629 625.575, 624.116 622 C 623.602 618.425, 622.881 606.500, 622.512 595.500 C 622.143 584.500, 621.434 570.325, 620.936 564 C 619.701 548.301, 619.775 519.431, 621.079 508.500 C 621.669 503.550, 623.452 494.325, 625.041 488 C 628.444 474.458, 628.859 463.902, 627.617 422.500 C 626.841 396.639, 626.822 396.468, 623.951 390.443 C 621.913 386.166, 619.770 383.456, 616.660 381.222 C 610.243 376.614, 609.006 373.258, 608.967 360.349 C 608.949 354.382, 608.543 346.575, 608.064 343 C 607.585 339.425, 606.658 332.450, 606.005 327.500 C 604.381 315.202, 602.197 304.587, 599.913 297.897 C 596.557 288.068, 596.791 287.347, 608.801 270.500 C 616.466 259.748, 619.192 254.559, 621.491 246.339 C 623.606 238.775, 622.485 234.195, 617.678 230.767 C 615.043 228.888, 613.303 228.522, 607.500 228.630 C 599.671 228.775, 587.376 231.747, 580.866 235.069 C 578.503 236.274, 574.116 239.114, 571.118 241.380 L 565.667 245.500 549.583 246.053 C 533.472 246.606, 531.536 246.982, 521.455 251.511 C 516.039 253.944, 504.206 262.491, 499.806 267.149 C 497.380 269.717, 496.465 270, 490.590 270 C 487.003 270, 482.590 270.648, 480.784 271.439 C 478.978 272.230, 476.205 273.153, 474.622 273.490 C 473.039 273.827, 470.451 275.395, 468.872 276.974 C 464.938 280.908, 464.771 288.522, 468.511 293.425 C 469.892 295.236, 471.881 299.992, 472.932 303.994 C 473.983 307.996, 475.440 311.805, 476.171 312.457 C 477.850 313.955, 483.438 316.190, 492.920 319.156 C 502.624 322.190, 509.850 327.224, 512.750 332.967 C 514.564 336.561, 515 339.092, 515 346.037 C 515 354.456, 512.041 374.133, 509.945 379.644 C 506.898 387.659, 504 401.432, 504 407.900 L 504 415 488.450 415 C 471.192 415, 470.318 415.234, 462.604 421.910 C 460.102 424.076, 457.254 426.106, 456.277 426.421 C 454.052 427.139, 451 432.395, 451 435.508 C 451 439.246, 455.648 442.265, 460.489 441.671 C 466.192 440.971, 471.910 439.499, 476.218 437.621 C 481.159 435.467, 485.799 435.580, 489.686 437.950 C 495.500 441.495, 495.530 442.768, 490.047 453.216 C 482.651 467.310, 480.617 473.618, 478.003 490.569 C 476.616 499.564, 471.706 515.412, 469.320 518.594 C 468.044 520.296, 467 522.589, 467 523.689 C 467 524.790, 466.177 526.435, 465.172 527.345 C 463.256 529.079, 462.386 528.842, 447.500 522.549 C 440.681 519.667, 438.298 518.758, 432.542 516.849 C 429.219 515.747, 425.150 514.265, 423.500 513.556 C 419.165 511.694, 411.783 509.278, 401.500 506.356 C 394.029 504.233, 389.658 503.711, 375.770 503.284 C 356.996 502.707, 351.256 503.722, 333.745 510.717 C 324.104 514.568, 321.054 514.538, 318.452 510.567 C 316.237 507.187, 317.711 502.372, 325.602 487.199 C 332.031 474.839, 333.019 471.419, 330.800 469.200 C 328.994 467.394, 326.330 467.747, 317.048 471.020 C 307.068 474.539, 306.288 474.587, 300.185 472.059 C 297.608 470.991, 292.350 468.909, 288.500 467.431 C 280.981 464.546, 277.398 461.924, 276.421 458.592 C 276.083 457.441, 274.280 453.230, 272.414 449.233 C 268.452 440.750, 265.632 438.701, 261.576 441.358 C 258.165 443.593, 257.128 445.826, 255.464 454.523 C 254.681 458.619, 253.356 463.607, 252.520 465.607 C 251.684 467.608, 251 469.901, 251 470.704 C 251 471.507, 249.484 474.039, 247.632 476.332 C 245.780 478.624, 243.731 481.527, 243.080 482.782 C 241.048 486.696, 241.571 501.506, 244.147 513 C 246.702 524.403, 247.214 540.676, 245.582 558.642 C 244.885 566.322, 245.031 568.516, 246.500 572.362 C 247.462 574.880, 248.032 577.772, 247.766 578.787 C 247.343 580.403, 249.195 584.361, 255.501 595.319 C 256.393 596.870, 257.324 600.786, 257.569 604.022 C 258.005 609.773, 257.931 609.982, 254.257 613.322 C 252.191 615.201, 248.475 618.592, 246 620.857 C 243.525 623.122, 240.938 624.981, 240.250 624.988 C 239.563 624.994, 239 625.473, 239 626.051 C 239 626.969, 233.513 632.915, 218.432 648.339 C 216.195 650.628, 212.642 654.827, 210.536 657.671 C 204.627 665.656, 203.988 665.535, 193.160 654.379 C 181.325 642.185, 168 625.507, 168 622.890 C 168 621.785, 167.571 621.147, 167.046 621.471 C 165.890 622.186, 154 604.779, 154 602.372 C 154 601.434, 153.691 600.976, 153.313 601.354 C 152.934 601.732, 150.431 598.320, 147.750 593.771 C 138.409 577.922, 129.935 559.928, 122.547 540.250 C 120.473 534.726, 119.370 533, 117.913 533 C 115.185 533, 115.474 534.794, 120.138 546.825 C 132.036 577.514, 151.575 613.039, 166.710 631.500 C 167.161 632.050, 169.308 634.750, 171.482 637.500 C 173.656 640.250, 178.262 645.717, 181.717 649.650 C 185.173 653.582, 188 657.294, 188 657.900 C 188 658.505, 188.420 659, 188.934 659 C 190.382 659, 201.498 670.823, 204.139 675.173 C 205.602 677.582, 207.492 679.276, 209.109 679.627 C 210.543 679.938, 213.018 681.329, 214.609 682.718 C 216.199 684.106, 220.650 687.773, 224.500 690.867 C 228.350 693.961, 231.781 696.879, 232.124 697.351 C 232.468 697.824, 233.917 697.445, 235.345 696.509 L 237.942 694.808 232.221 690.473 C 229.075 688.088, 224.925 684.744, 223 683.041 C 219.630 680.059, 219.574 679.899, 221.500 678.722 C 223.501 677.499, 228.989 672.029, 240.790 659.496 C 244.249 655.822, 247.656 653.038, 248.361 653.308 C 249.067 653.579, 250.135 653.013, 250.736 652.051 C 251.337 651.089, 254.454 649.296, 257.664 648.066 C 260.874 646.836, 264.694 645.193, 266.154 644.415 C 267.614 643.637, 269.435 643, 270.200 643 C 270.965 643, 274.946 640.983, 279.046 638.517 C 283.146 636.051, 287.440 634.026, 288.589 634.017 C 289.832 634.007, 291.136 632.997, 291.805 631.528 C 292.425 630.168, 294.072 628.769, 295.466 628.419 C 296.860 628.069, 298 627.355, 298 626.833 C 298 626.310, 298.480 626.179, 299.067 626.541 C 299.653 626.904, 299.898 627.435, 299.611 627.722 C 299.324 628.009, 300.195 630.424, 301.545 633.089 C 302.895 635.753, 304 639.096, 304 640.516 C 304 641.937, 304.602 644.314, 305.337 645.800 C 307.600 650.370, 309.110 663.842, 308.068 670.158 C 307.111 675.963, 304.172 682.806, 301.823 684.701 C 301.095 685.289, 298.925 686.080, 297 686.459 C 290.579 687.725, 289.826 688.173, 288.409 691.564 C 286.311 696.585, 286.612 700.615, 289.223 702.443 C 290.919 703.632, 294.147 704, 302.861 704 L 314.276 704 318.888 699.774 C 324.236 694.874, 331.949 683.076, 333.125 678 C 333.571 676.075, 334.002 671.125, 334.083 667 C 334.165 662.875, 334.721 658.600, 335.320 657.500 C 335.920 656.400, 336.303 654.794, 336.173 653.931 C 335.891 652.069, 344.544 623.819, 346.718 619.500 C 347.549 617.850, 349.386 615.262, 350.801 613.750 C 353.316 611.063, 353.633 611, 364.727 611 C 374.280 611, 376.747 611.334, 380.290 613.110 C 388.969 617.460, 395.698 626.808, 398.577 638.515 C 400.470 646.213, 402.107 649.936, 405.648 654.594 C 408.675 658.576, 408.619 659.360, 404.905 665.148 C 400.484 672.038, 387.070 679.820, 381.464 678.748 C 380.032 678.475, 377.302 679.082, 375.245 680.130 C 373.227 681.159, 371.069 682, 370.449 682 C 369.107 682, 367 686.295, 367 689.031 C 367 690.097, 368.312 692.438, 369.917 694.234 L 372.833 697.500 384.167 697.472 C 396.417 697.442, 403.061 696.435, 404.256 694.426 C 404.672 693.728, 406.472 692.840, 408.256 692.453 C 410.040 692.065, 411.725 691.429, 412 691.039 C 412.574 690.224, 422.364 684.225, 429 680.621 C 435.710 676.977, 441.727 671.382, 442.858 667.734 C 443.410 665.955, 444.598 657.750, 445.499 649.500 C 446.400 641.250, 447.444 634.199, 447.818 633.832 C 448.193 633.464, 452.100 635.293, 456.500 637.895 C 465.580 643.266, 475.931 647.645, 484 649.528 C 487.025 650.234, 492.650 651.737, 496.500 652.869 C 500.350 654.001, 506.996 655.917, 511.268 657.127 L 519.036 659.328 521.970 665.414 C 525.243 672.203, 526.835 680.366, 525.096 681.441 C 524.493 681.813, 524 682.947, 524 683.961 C 524 685.099, 522.882 686.194, 521.080 686.822 C 514.386 689.156, 511.742 696.567, 515.772 701.701 C 517.348 703.709, 518.524 703.928, 529.171 704.201 C 535.589 704.365, 540.651 704.312, 540.418 704.081 C 540.186 703.851, 540.637 702.951, 541.420 702.081 C 543.236 700.066, 545.869 692.933, 547.172 686.500 C 547.742 683.685, 548.035 672.029, 547.843 659.830 C 547.505 638.492, 547.463 638.120, 545.076 635.580 C 543.742 634.161, 542.167 632.993, 541.576 632.984 C 540.053 632.961, 535.409 628.560, 528.929 621 C 520.683 611.379, 520.483 612, 531.827 612 L 541.772 612 543.276 615.250 C 548.208 625.905, 550.022 630.528, 552.792 639.500 C 557.680 655.337, 557.869 656.526, 558.483 675.359 L 559.065 693.217 563.238 697.109 L 567.412 701 579.206 701 L 591 701 594.944 697.056 C 601.048 690.952, 601.065 686.843, 595.042 673.500 C 593.355 669.761, 591.799 663.868, 592.353 663.314 C 592.656 663.010, 592.251 662.108, 591.452 661.310 C 590.654 660.511, 590 658.687, 590 657.257 C 590 655.827, 589.366 653.947, 588.592 653.079 C 587.818 652.210, 585.758 646.775, 584.016 641 C 578.976 624.299, 578.702 626, 586.434 626 C 593.077 626, 593.107 626.013, 594.528 629.413 C 595.851 632.580, 596.024 635.506, 596.008 654.500 C 595.997 666.910, 598.194 675.072, 603.394 681.944 C 605.503 684.732, 606 686.489, 606 691.160 C 606 700.237, 611.569 710, 616.746 710 C 620.123 710, 618.983 711.188, 611.131 715.853 C 591.595 727.459, 561.122 740.746, 539.264 747.188 C 529.379 750.102, 528.026 750.764, 528.014 752.696 C 528 754.864, 528.065 754.873, 533.009 753.405 C 560.372 745.279, 588.275 732.987, 614.279 717.602 C 620.881 713.696, 622.856 713, 627.338 713 C 630.432 713, 633.421 712.392, 634.559 711.532 C 635.626 710.724, 638.118 710.049, 640.095 710.032 C 644.856 709.990, 646.981 707.518, 647.070 701.921 C 647.109 699.490, 647.446 696.738, 647.820 695.806 C 648.194 694.875, 652.325 690.889, 657 686.950 C 706.064 645.601, 742.231 592.478, 762.896 531.405 C 780.699 478.791, 784.894 416.841, 774.469 360.500 C 749.368 224.838, 643.076 116.986, 507.500 89.614 C 500.900 88.281, 493.363 86.895, 490.750 86.534 C 486.217 85.907, 486 85.987, 486 88.285 M 363.429 91.513 C 290.106 108.191, 220.970 151.840, 173.567 211.383 C 125.039 272.340, 98.033 348.776, 98.004 425.250 L 98 436 101.250 435.921 C 103.037 435.878, 103.938 435.615, 103.250 435.338 C 102.321 434.963, 102.005 430.680, 102.020 418.667 C 102.065 381.761, 108.976 343.383, 121.949 308 C 127.268 293.490, 134.511 277.860, 135.499 278.756 C 135.951 279.165, 136.019 278.974, 135.651 278.331 C 135.283 277.687, 135.639 276.504, 136.443 275.700 C 137.247 274.896, 137.626 273.960, 137.286 273.619 C 136.945 273.279, 137.218 273, 137.892 273 C 138.566 273, 138.840 272.550, 138.500 272 C 138.160 271.450, 138.385 271, 139 271 C 139.615 271, 139.840 270.550, 139.500 270 C 139.160 269.450, 139.385 269, 140 269 C 140.615 269, 140.862 268.586, 140.549 268.080 C 139.528 266.427, 150.626 247.051, 161.501 231.500 C 204.001 170.729, 264.100 126.399, 335 103.525 C 347.662 99.440, 368.802 94, 372.015 94 C 374.238 94, 375.810 91.372, 374.383 90.044 C 373.897 89.592, 368.968 90.253, 363.429 91.513 M 285.831 249.530 C 283.999 251.471, 282.453 253.853, 282.397 254.822 C 282.340 255.791, 281.777 257.548, 281.146 258.727 C 280.344 260.225, 280.302 261.663, 281.004 263.510 C 281.973 266.060, 282.444 271.949, 283.420 293.747 C 283.672 299.384, 284.133 304.406, 284.444 304.909 C 284.755 305.412, 285.226 308.372, 285.491 311.485 C 285.756 314.599, 286.261 317.613, 286.613 318.183 C 286.965 318.753, 287.174 323.557, 287.078 328.859 C 286.945 336.142, 287.274 338.989, 288.419 340.500 C 289.254 341.600, 289.951 343.528, 289.968 344.785 C 289.995 346.737, 289.718 346.920, 288.066 346.035 C 283.248 343.457, 275.590 347.172, 272.101 353.780 C 270.149 357.478, 267 368.046, 267 370.900 C 267 372.352, 266.072 376.890, 264.937 380.984 C 262.601 389.414, 263.193 392.362, 267.553 394.020 C 271.274 395.435, 277.067 395.214, 280.288 393.534 C 284.860 391.148, 296.405 382.231, 297.758 380.038 C 299.166 377.759, 302.049 377.420, 305.287 379.154 C 310.294 381.833, 319.483 378.626, 321.881 373.362 C 322.455 372.103, 324.212 370.893, 326.054 370.488 C 330.059 369.609, 343.523 363.319, 347.500 360.470 C 349.150 359.288, 353.310 356.890, 356.744 355.142 C 360.178 353.394, 365.081 350.636, 367.639 349.014 C 370.197 347.392, 374.475 345.339, 377.145 344.452 C 379.815 343.565, 382 342.330, 382 341.707 C 382 341.085, 380.887 339.433, 379.526 338.038 C 378.165 336.642, 375.766 334.079, 374.196 332.343 C 370.708 328.487, 363.557 327.241, 354.511 328.913 C 351.263 329.514, 348.274 329.666, 347.868 329.253 C 347.463 328.839, 345.952 323.361, 344.510 317.080 C 343.068 310.799, 341.497 304.928, 341.018 304.034 C 340.539 303.139, 338.085 300.649, 335.565 298.501 C 333.044 296.352, 330.059 292.688, 328.931 290.357 C 327.430 287.257, 325.711 285.554, 322.524 284.012 C 316.806 281.244, 309.927 272.551, 304.540 261.286 C 303.695 259.518, 302.103 257.590, 301.002 257.001 C 299.901 256.412, 299 255.435, 299 254.831 C 299 253.343, 291.794 246.002, 290.331 246.001 C 289.688 246, 287.663 247.588, 285.831 249.530 M 99.211 457.538 C 98.119 458.775, 98.311 459, 100.461 459 C 102.051 459, 103 458.440, 103 457.500 C 103 455.603, 100.899 455.624, 99.211 457.538 M 110.524 511.359 C 108.190 513.066, 109.165 514.651, 112.888 515.197 C 115.783 515.622, 115.790 515.609, 114.203 513.062 C 113.324 511.653, 112.549 510.392, 112.480 510.260 C 112.411 510.129, 111.531 510.623, 110.524 511.359 M 250.522 706.975 C 248.838 708.837, 249.007 709.045, 255.739 713.400 C 263.809 718.620, 284.064 730, 285.286 730 C 285.744 730, 285.840 730.450, 285.500 731 C 284.723 732.257, 284.986 732.249, 288.851 730.902 C 290.583 730.298, 292 729.438, 292 728.991 C 292 728.544, 287.613 725.836, 282.250 722.974 C 272.309 717.668, 259.595 710.195, 254.882 706.888 C 252.333 705.100, 252.217 705.103, 250.522 706.975 M 312.178 738.711 C 310.245 739.647, 309.267 740.667, 309.795 741.195 C 311.521 742.921, 342.632 753.174, 356.500 756.587 C 383.034 763.116, 411.279 766.812, 436.500 767.054 C 449.329 767.177, 474.303 765.033, 491.750 762.312 C 508.492 759.700, 509 759.551, 509 757.243 C 509 755.449, 508.571 754.992, 507.250 755.381 C 504.481 756.196, 494.477 757.856, 482 759.570 C 469.645 761.266, 422.141 762.701, 419.241 761.465 C 418.284 761.057, 416.102 760.814, 414.393 760.926 C 409.384 761.253, 386.637 758.077, 371.500 754.937 C 351.318 750.751, 317.617 740.421, 315.979 737.918 C 315.692 737.481, 313.982 737.837, 312.178 738.711" stroke="none" fill="#11858d" fill-rule="evenodd"/><path d="M -0 428.501 L -0 857.002 428.750 856.751 L 857.500 856.500 857.751 428.250 L 858.002 -0 429.001 -0 L 0 0 -0 428.501 M 0.495 429 C 0.495 664.675, 0.610 761.087, 0.750 643.250 C 0.890 525.412, 0.890 332.587, 0.750 214.750 C 0.610 96.912, 0.495 193.325, 0.495 429 M 398.054 65.669 C 391.568 68.044, 384.521 75.507, 382.575 82.059 C 376.931 101.065, 388.099 117.537, 407.473 118.780 C 413.266 119.152, 415.526 118.829, 419.692 117.037 C 422.503 115.828, 425.817 113.760, 427.055 112.441 L 429.307 110.044 424.908 106.140 L 420.508 102.236 417.677 104.618 C 415.451 106.491, 413.680 107, 409.385 107 C 404.423 107, 403.542 106.645, 399.767 103.123 C 395.858 99.477, 395.589 98.868, 395.245 92.873 C 394.775 84.682, 396.908 80.409, 403.074 77.188 C 408.272 74.472, 413.773 74.717, 418.016 77.854 L 420.725 79.856 424.892 75.610 C 428.830 71.598, 428.961 71.278, 427.280 69.802 C 421.164 64.437, 406.916 62.422, 398.054 65.669 M 434 81.451 C 434 90.499, 434.496 100.214, 435.102 103.040 C 437.950 116.322, 453.907 123.016, 467.500 116.632 C 477.861 111.766, 479 108.536, 479 84.032 L 479 65 473.081 65 L 467.162 65 466.831 82.930 C 466.529 99.299, 466.317 101.104, 464.398 103.671 C 460.020 109.530, 451.609 108.911, 448.570 102.507 C 447.334 99.901, 447 95.566, 447 82.099 L 447 65 440.500 65 L 434 65 434 81.451 M 486 88.285 C 486 90.562, 486.558 90.786, 496.250 92.393 C 544.912 100.462, 595.765 121.960, 637 151.895 C 646.575 158.846, 666 175.046, 666 176.081 C 666 176.515, 662.962 175.092, 659.250 172.918 C 626.444 153.709, 582.264 154.332, 540 174.599 C 515.557 186.321, 497.009 199.899, 473.601 223.209 C 463.508 233.260, 455.655 240.282, 454.101 240.647 C 452.671 240.983, 450.375 242.273, 449 243.515 C 447.625 244.756, 445.150 246.455, 443.500 247.291 C 439.296 249.420, 436.450 252.729, 433.937 258.410 C 431.113 264.794, 431.739 270.200, 435.769 274.231 C 444.456 282.918, 460.604 273.819, 461.786 259.571 C 462.170 254.941, 462.562 254.061, 464.359 253.804 C 466.926 253.436, 467.643 250.570, 465.956 247.419 C 464.824 245.303, 465.156 244.593, 469.756 239.300 C 478.423 229.326, 499.086 209.709, 509 202.042 C 547.464 172.296, 585.072 159.690, 618.119 165.465 C 639.042 169.121, 654.627 177.562, 671.624 194.444 C 699.038 221.674, 714.502 260.619, 720.080 316.484 C 721.578 331.490, 720.706 373.455, 718.531 391 C 710.051 459.410, 684.960 528.710, 648.290 585 C 639.609 598.325, 625.021 618, 623.822 618 C 623.370 618, 622.992 614.962, 622.982 611.250 C 622.955 601.027, 621.994 579.048, 620.941 564.550 C 619.685 547.264, 619.753 519.619, 621.079 508.500 C 621.669 503.550, 623.452 494.325, 625.041 488 C 628.444 474.458, 628.859 463.902, 627.617 422.500 C 626.841 396.639, 626.822 396.468, 623.951 390.443 C 621.913 386.166, 619.770 383.456, 616.660 381.222 C 610.243 376.614, 609.006 373.258, 608.967 360.349 C 608.949 354.382, 608.543 346.575, 608.064 343 C 607.585 339.425, 606.658 332.450, 606.005 327.500 C 604.381 315.202, 602.197 304.587, 599.913 297.897 C 596.557 288.068, 596.791 287.347, 608.801 270.500 C 616.466 259.748, 619.192 254.559, 621.491 246.339 C 623.606 238.775, 622.485 234.195, 617.678 230.767 C 615.043 228.888, 613.303 228.522, 607.500 228.630 C 599.671 228.775, 587.376 231.747, 580.866 235.069 C 578.503 236.274, 574.116 239.114, 571.118 241.380 L 565.667 245.500 549.583 246.053 C 533.472 246.606, 531.536 246.982, 521.455 251.511 C 516.039 253.944, 504.206 262.491, 499.806 267.149 C 497.380 269.717, 496.465 270, 490.590 270 C 487.003 270, 482.590 270.648, 480.784 271.439 C 478.978 272.230, 476.205 273.153, 474.622 273.490 C 473.039 273.827, 470.451 275.395, 468.872 276.974 C 464.938 280.908, 464.771 288.522, 468.511 293.425 C 469.892 295.236, 471.881 299.992, 472.932 303.994 C 473.983 307.996, 475.440 311.805, 476.171 312.457 C 477.850 313.955, 483.438 316.190, 492.920 319.156 C 502.624 322.190, 509.850 327.224, 512.750 332.967 C 514.564 336.561, 515 339.092, 515 346.037 C 515 354.456, 512.041 374.133, 509.945 379.644 C 506.898 387.659, 504 401.432, 504 407.900 L 504 415 488.450 415 C 471.192 415, 470.318 415.234, 462.604 421.910 C 460.102 424.076, 457.254 426.106, 456.277 426.421 C 454.052 427.139, 451 432.395, 451 435.508 C 451 439.246, 455.648 442.265, 460.489 441.671 C 466.192 440.971, 471.910 439.499, 476.218 437.621 C 481.159 435.467, 485.799 435.580, 489.686 437.950 C 495.500 441.495, 495.530 442.768, 490.047 453.216 C 482.651 467.310, 480.617 473.618, 478.003 490.569 C 476.616 499.564, 471.706 515.412, 469.320 518.594 C 468.044 520.296, 467 522.589, 467 523.689 C 467 524.790, 466.177 526.435, 465.172 527.345 C 463.256 529.079, 462.386 528.842, 447.500 522.549 C 440.681 519.667, 438.298 518.758, 432.542 516.849 C 429.219 515.747, 425.150 514.265, 423.500 513.556 C 419.165 511.694, 411.783 509.278, 401.500 506.356 C 394.029 504.233, 389.658 503.711, 375.770 503.284 C 356.996 502.707, 351.256 503.722, 333.745 510.717 C 324.104 514.568, 321.054 514.538, 318.452 510.567 C 316.237 507.187, 317.711 502.372, 325.602 487.199 C 332.031 474.839, 333.019 471.419, 330.800 469.200 C 328.994 467.394, 326.330 467.747, 317.048 471.020 C 307.068 474.539, 306.288 474.587, 300.185 472.059 C 297.608 470.991, 292.350 468.909, 288.500 467.431 C 280.981 464.546, 277.398 461.924, 276.421 458.592 C 276.083 457.441, 274.280 453.230, 272.414 449.233 C 268.452 440.750, 265.632 438.701, 261.576 441.358 C 258.165 443.593, 257.128 445.826, 255.464 454.523 C 254.681 458.619, 253.356 463.607, 252.520 465.607 C 251.684 467.608, 251 469.901, 251 470.704 C 251 471.507, 249.484 474.039, 247.632 476.332 C 245.780 478.624, 243.731 481.527, 243.080 482.782 C 241.048 486.696, 241.571 501.506, 244.147 513 C 246.705 524.413, 247.214 540.666, 245.578 558.702 C 244.892 566.275, 245.032 568.623, 246.372 571.972 C 248.168 576.461, 248.490 580, 247.102 580 C 245.951 580, 228.628 560.349, 218.893 548 C 188.282 509.168, 164.406 466.926, 150.600 427.174 C 135.628 384.062, 131.028 346.464, 136.629 313 C 145.166 262.003, 175.602 228.674, 223 218.419 C 233.214 216.209, 257.112 215.457, 270.046 216.939 C 299.759 220.344, 330.072 230.072, 363.216 246.840 C 379.074 254.863, 380.420 255.758, 381.495 259 C 382.265 261.324, 383.718 263.011, 385.819 264.021 C 387.794 264.971, 389.832 267.226, 391.242 270.021 C 395.163 277.798, 407.612 281.921, 414.180 277.618 C 419.434 274.175, 420.280 266.169, 415.970 260.689 C 413.262 257.246, 404.398 253, 399.919 253 C 397.045 253, 395.852 252.423, 394.518 250.388 C 393.018 248.098, 392.337 247.850, 389.007 248.383 C 385.777 248.899, 383.927 248.309, 376.661 244.444 C 315.898 212.120, 251.724 202.285, 203.945 217.975 C 179.305 226.066, 158.320 241.512, 145.239 261.184 C 136.995 273.582, 139.486 267.273, 150.051 249 C 155.249 240.008, 167.756 222.274, 176.537 211.444 C 217.029 161.499, 272.591 123.660, 335 103.525 C 347.662 99.440, 368.802 94, 372.015 94 C 374.141 94, 375.612 91.799, 374.590 90.146 C 373.884 89.004, 360.855 91.717, 346 96.100 C 258.350 121.958, 186.309 179.292, 141.943 258.500 C 113.462 309.347, 98.026 367.879, 98.004 425.111 L 98 435.721 92.821 436.335 C 86.031 437.139, 74.745 442.616, 68.572 448.103 C 62.100 453.856, 56.428 462.779, 53.851 471.263 C 51.324 479.585, 51.617 494.470, 54.466 502.484 C 59.480 516.585, 72.238 528.903, 86.639 533.546 C 92.865 535.554, 105.544 536.127, 112.250 534.705 C 114.826 534.158, 116 534.260, 116 535.030 C 116 536.770, 123.741 556.318, 129.182 568.318 C 134.034 579.018, 142.150 594.343, 148.610 605 L 151.944 610.500 150.448 618.500 C 147.952 631.845, 147.525 649.104, 149.421 659.961 C 151.858 673.918, 160.490 691.357, 169.893 701.322 C 174.327 706.021, 185.032 714.016, 190.750 716.898 C 193.132 718.099, 196.043 720.681, 197.371 722.771 C 203.067 731.734, 217.227 743.134, 228.500 747.834 C 247.138 755.603, 268.810 755.346, 293.308 747.065 C 297.857 745.527, 303.034 743.517, 304.812 742.597 C 307.982 740.958, 308.258 741.002, 318.773 744.834 C 349.977 756.206, 376.030 762.249, 406.930 765.280 L 419.360 766.500 422.465 776 C 428.109 793.269, 433.243 801.226, 443.779 809.032 C 459.849 820.938, 479.863 821.499, 496.420 810.509 C 510.691 801.037, 520.670 785.806, 525.766 765.722 L 528.500 754.943 544.500 749.580 C 569.848 741.084, 590.880 731.445, 614.279 717.602 C 620.881 713.696, 622.856 713, 627.338 713 C 630.432 713, 633.421 712.392, 634.559 711.532 C 635.626 710.724, 638.118 710.049, 640.095 710.032 C 644.856 709.990, 646.981 707.518, 647.070 701.921 C 647.109 699.490, 647.446 696.738, 647.820 695.806 C 648.194 694.875, 652.325 690.889, 657 686.950 C 706.064 645.601, 742.231 592.478, 762.896 531.405 C 780.699 478.791, 784.894 416.841, 774.469 360.500 C 749.368 224.838, 643.076 116.986, 507.500 89.614 C 500.900 88.281, 493.363 86.895, 490.750 86.534 C 486.217 85.907, 486 85.987, 486 88.285 M 704.042 218.235 C 704.019 218.639, 705.355 221.172, 707.011 223.863 C 711.017 230.375, 718.172 247.594, 721.928 259.767 C 733.325 296.701, 736.322 343.455, 730.404 392 C 723.402 449.440, 702.101 512.893, 672.471 564.576 C 660.711 585.088, 640.022 614.682, 629.531 626 C 627.746 627.925, 626.041 630.209, 625.741 631.076 C 625.441 631.943, 626.264 638.693, 627.570 646.076 C 632.376 673.260, 634.969 680.614, 642.276 687.782 L 646.642 692.065 657.071 683.435 C 670.194 672.576, 691.670 650.741, 702.728 637.015 C 742.037 588.225, 766.695 529.076, 774.647 464.500 C 777.025 445.183, 777.011 407.685, 774.617 388 C 767.777 331.747, 748.544 280.433, 716.875 233.944 C 710.974 225.280, 704.118 216.888, 704.042 218.235 M 285.831 249.530 C 283.999 251.471, 282.453 253.853, 282.397 254.822 C 282.340 255.791, 281.777 257.548, 281.146 258.727 C 280.344 260.225, 280.302 261.663, 281.004 263.510 C 281.973 266.060, 282.444 271.949, 283.420 293.747 C 283.672 299.384, 284.133 304.406, 284.444 304.909 C 284.755 305.412, 285.226 308.372, 285.491 311.485 C 285.756 314.599, 286.261 317.613, 286.613 318.183 C 286.965 318.753, 287.174 323.557, 287.078 328.859 C 286.945 336.142, 287.274 338.989, 288.419 340.500 C 289.254 341.600, 289.951 343.528, 289.968 344.785 C 289.995 346.737, 289.718 346.920, 288.066 346.035 C 283.248 343.457, 275.590 347.172, 272.101 353.780 C 270.149 357.478, 267 368.046, 267 370.900 C 267 372.352, 266.072 376.890, 264.937 380.984 C 262.601 389.414, 263.193 392.362, 267.553 394.020 C 271.274 395.435, 277.067 395.214, 280.288 393.534 C 284.860 391.148, 296.405 382.231, 297.758 380.038 C 299.166 377.759, 302.049 377.420, 305.287 379.154 C 310.294 381.833, 319.483 378.626, 321.881 373.362 C 322.455 372.103, 324.212 370.893, 326.054 370.488 C 330.059 369.609, 343.523 363.319, 347.500 360.470 C 349.150 359.288, 353.310 356.890, 356.744 355.142 C 360.178 353.394, 365.081 350.636, 367.639 349.014 C 370.197 347.392, 374.475 345.339, 377.145 344.452 C 379.815 343.565, 382 342.330, 382 341.707 C 382 341.085, 380.887 339.433, 379.526 338.038 C 378.165 336.642, 375.766 334.079, 374.196 332.343 C 370.708 328.487, 363.557 327.241, 354.511 328.913 C 351.263 329.514, 348.274 329.666, 347.868 329.253 C 347.463 328.839, 345.952 323.361, 344.510 317.080 C 343.068 310.799, 341.497 304.928, 341.018 304.034 C 340.539 303.139, 338.085 300.649, 335.565 298.501 C 333.044 296.352, 330.059 292.688, 328.931 290.357 C 327.430 287.257, 325.711 285.554, 322.524 284.012 C 316.806 281.244, 309.927 272.551, 304.540 261.286 C 303.695 259.518, 302.103 257.590, 301.002 257.001 C 299.901 256.412, 299 255.435, 299 254.831 C 299 253.343, 291.794 246.002, 290.331 246.001 C 289.688 246, 287.663 247.588, 285.831 249.530 M 134.065 279.250 C 133.577 280.488, 131.516 285.100, 129.484 289.500 C 112.440 326.412, 102.073 375.173, 102.020 418.683 C 101.997 436.916, 101.205 435.310, 110.823 436.532 C 128.536 438.782, 146.634 456.732, 150.111 475.500 C 152.106 486.270, 149.525 505.500, 146.084 505.500 C 145.415 505.500, 141.707 502.804, 137.843 499.508 C 131.247 493.883, 130.850 493.312, 131.359 490.175 C 132.060 485.856, 130.330 476.567, 127.959 471.919 C 124.155 464.463, 111.854 456, 104.822 456 C 101.451 456, 102.963 457.913, 107.244 459.066 C 121.521 462.910, 128.793 472.733, 127.699 486.698 C 127.405 490.439, 127.016 494.183, 126.833 495.018 C 126.637 495.913, 130.155 499.797, 135.405 504.480 C 152.921 520.106, 161.176 531.711, 168.140 550.500 L 171.475 559.500 171.412 581.500 C 171.364 598.019, 170.932 605.493, 169.675 611.500 C 167.098 623.812, 167.083 623.758, 175.887 634.699 C 186.667 648.095, 189.735 651.586, 190.213 651 C 190.437 650.725, 192.075 648.182, 193.851 645.348 C 202.843 631.010, 217.815 623.153, 234.027 624.264 L 241.654 624.787 246.077 620.763 C 248.510 618.549, 252.188 615.204, 254.250 613.329 C 256.313 611.454, 258 609.086, 258 608.068 C 258 607.050, 254.804 603.131, 250.897 599.359 C 241.085 589.884, 220.003 566.526, 210.410 554.500 C 163.181 495.292, 134.001 433.203, 124.875 372.500 C 122.762 358.444, 123.050 323.886, 125.382 311.529 C 127.257 301.596, 131.270 287.881, 134.387 280.750 C 135.289 278.688, 135.785 277, 135.489 277 C 135.193 277, 134.552 278.012, 134.065 279.250 M 90.097 458.179 C 83.586 460.679, 76.693 467.244, 73.691 473.804 C 70.734 480.264, 70.704 491.672, 73.626 498.051 C 76.704 504.768, 81.364 509.526, 88.222 512.953 C 93.184 515.433, 95.546 515.997, 100.910 515.985 C 104.534 515.976, 108.039 515.627, 108.697 515.208 C 111.349 513.523, 108.056 512.500, 99.976 512.500 C 92.082 512.500, 91.082 512.262, 86.438 509.281 C 78.044 503.894, 74 496.651, 74 487.004 C 74 473.459, 81.707 463.176, 94.686 459.403 C 100.104 457.828, 101.814 455.958, 97.750 456.052 C 96.513 456.081, 93.068 457.038, 90.097 458.179 M 113 510.923 C 113 512.497, 117.523 517.320, 123.388 522 C 126.475 524.463, 129 526.738, 129 527.055 C 129 527.372, 127.088 528.685, 124.750 529.972 C 122.412 531.260, 120.338 532.442, 120.141 532.599 C 119.183 533.362, 131.199 562.464, 138.060 576 C 146.481 592.614, 152.698 602.544, 153.334 600.397 C 154.626 596.040, 155.146 575.057, 154.139 567.926 C 151.620 550.097, 141.546 532.647, 126.722 520.436 C 124.094 518.271, 120.269 515.038, 118.222 513.251 C 114.411 509.924, 113 509.295, 113 510.923 M 350.801 613.750 C 349.386 615.263, 347.549 617.850, 346.718 619.500 C 345.018 622.877, 336 651.445, 336 653.455 C 336 656.036, 377.666 679, 382.350 679 C 388.654 679, 400.812 671.526, 404.919 665.127 C 408.619 659.361, 408.673 658.574, 405.648 654.594 C 402.107 649.936, 400.470 646.213, 398.577 638.515 C 395.698 626.808, 388.969 617.460, 380.290 613.110 C 376.747 611.334, 374.280 611, 364.727 611 C 353.633 611, 353.316 611.063, 350.801 613.750 M 522.620 613.250 C 523.916 615.445, 534.390 627.400, 537.500 630.234 C 539.150 631.738, 540.984 632.975, 541.576 632.984 C 542.167 632.993, 543.742 634.161, 545.076 635.581 C 547.433 638.090, 547.510 638.679, 547.854 656.868 L 548.208 675.576 551.354 676.640 C 553.084 677.225, 555.288 678.044, 556.250 678.459 C 557.858 679.153, 558 678.297, 558 667.928 C 558 661.721, 557.591 655.260, 557.091 653.571 C 551.118 633.386, 549.173 627.989, 543.276 615.250 L 541.772 612 531.827 612 C 524.144 612, 522.050 612.284, 522.620 613.250 M 580.307 628.250 C 582.187 636.078, 587.371 651.718, 588.460 652.844 C 589.542 653.963, 590.301 653.702, 593.007 651.285 C 596.177 648.453, 596.252 648.196, 596.105 640.604 C 596.022 636.326, 595.312 631.290, 594.528 629.413 C 593.107 626.013, 593.077 626, 586.434 626 C 580.026 626, 579.788 626.088, 580.307 628.250 M 165.634 638.271 C 164.971 644.741, 166.107 656.480, 168.075 663.500 C 170.277 671.356, 181.331 689.644, 184.500 690.675 C 185.128 690.879, 185.504 686.629, 185.511 679.250 C 185.516 672.788, 186.119 665.155, 186.851 662.290 L 188.180 657.080 181.340 649.270 C 177.578 644.974, 172.925 639.345, 171 636.761 C 169.075 634.176, 167.225 632.048, 166.888 632.031 C 166.552 632.014, 165.987 634.822, 165.634 638.271 M 447.653 633.752 C 447.375 634.202, 446.408 641.304, 445.504 649.535 C 444.601 657.766, 443.404 665.972, 442.846 667.771 C 441.748 671.310, 435.878 676.728, 428.627 680.896 C 426.135 682.328, 421.375 685.066, 418.048 686.981 C 414.722 688.895, 412 690.746, 412 691.094 C 412 692.287, 430.500 696.945, 443.391 698.998 C 450.482 700.127, 456.355 700.927, 456.444 700.775 C 460.474 693.897, 462.872 692.527, 472.500 691.601 C 487.719 690.137, 522.622 683.559, 524.810 681.742 C 526.791 680.099, 525.516 672.769, 521.970 665.414 L 519.036 659.328 511.268 657.127 C 506.996 655.917, 500.350 654.001, 496.500 652.869 C 492.650 651.737, 487.025 650.234, 484 649.528 C 474.195 647.239, 464.387 642.839, 451.329 634.870 C 449.585 633.806, 447.931 633.303, 447.653 633.752 M 279.046 638.517 C 274.946 640.983, 270.869 643, 269.987 643 C 269.104 643, 267.615 643.563, 266.677 644.250 C 265.077 645.423, 265.094 645.845, 266.943 651.103 C 272.773 667.675, 269.082 686.518, 257.400 699.815 C 254.746 702.837, 253.112 705.498, 253.615 705.981 C 257.043 709.274, 290.598 728, 293.072 728 C 293.844 728, 302.806 724, 312.987 719.112 C 341.578 705.384, 352.795 701.969, 369.629 701.864 C 381.737 701.789, 388.805 703.322, 398.749 708.180 C 410.609 713.974, 418.977 723.135, 426.940 739.042 C 430.191 745.536, 433.662 753.425, 434.655 756.574 L 436.459 762.298 453.480 761.678 C 462.841 761.337, 474.100 760.586, 478.500 760.009 C 494.902 757.857, 506.541 755.739, 507.870 754.664 C 508.932 753.805, 509.090 751.715, 508.572 745.335 C 507.719 734.824, 505.004 725.056, 501.549 720.071 C 497.402 714.086, 493.562 713, 476.556 713 C 462.937 713, 462 712.873, 459.327 710.664 C 457.144 708.860, 453.198 707.732, 442 705.712 C 434.025 704.272, 421.717 701.438, 414.649 699.412 C 402.450 695.916, 401.531 695.793, 396.529 696.993 C 393.343 697.757, 387.595 698.082, 381.990 697.814 C 372.994 697.384, 372.633 697.273, 369.765 694.063 C 366.863 690.815, 366.515 688.332, 368.354 684 C 368.834 682.868, 366.113 681.027, 357.272 676.501 C 350.827 673.201, 343.125 669.038, 340.156 667.251 C 337.187 665.463, 334.652 664, 334.522 664 C 334.392 664, 334.039 667.607, 333.736 672.016 C 333.229 679.411, 332.815 680.631, 328.385 687.766 C 325.744 692.020, 321.539 697.395, 319.041 699.710 L 314.500 703.921 302.973 703.960 C 294.109 703.991, 290.931 703.640, 289.223 702.443 C 286.612 700.615, 286.311 696.585, 288.409 691.564 C 289.826 688.173, 290.579 687.725, 297 686.459 C 301.436 685.584, 302.674 684.560, 305.145 679.716 C 308.364 673.407, 309.218 665.363, 307.685 655.791 C 306.950 651.201, 305.932 646.727, 305.424 645.850 C 303.815 643.074, 290.988 633.999, 288.697 634.017 C 287.489 634.026, 283.146 636.051, 279.046 638.517 M 217.415 645.468 C 213.067 648.074, 209.082 653.121, 206.533 659.250 C 204.345 664.511, 205.911 663.915, 210.476 657.750 C 212.615 654.862, 216.307 650.572, 218.682 648.215 C 224.778 642.166, 224.376 641.295, 217.415 645.468 M 240.773 659.513 C 229 672.018, 223.501 677.499, 221.500 678.722 C 219.575 679.899, 219.630 680.059, 223 683.024 C 224.925 684.718, 228.879 687.948, 231.786 690.202 C 236.696 694.008, 237.251 694.204, 239.583 692.956 C 242.695 691.290, 249.594 681.121, 250.968 676.176 C 253.093 668.525, 251.379 654.293, 248.205 653.235 C 247.568 653.023, 244.224 655.848, 240.773 659.513 M 593.032 662.461 C 591.823 663.918, 592.572 668.027, 595.042 673.500 C 601.065 686.843, 601.048 690.952, 594.944 697.056 L 591 701 579.153 701 L 567.307 701 563.609 697.408 L 559.910 693.817 557.567 696.158 C 556.278 697.446, 551.076 700.275, 546.007 702.445 C 540.938 704.614, 536.194 707.314, 535.465 708.445 C 532.224 713.469, 526.415 747.749, 528.459 749.792 C 529.354 750.687, 548.747 744.539, 564.362 738.410 C 583.559 730.876, 616.582 714.104, 618.577 710.875 C 618.875 710.394, 618.051 710, 616.746 710 C 611.608 710, 606 700.236, 606 691.289 C 606 686.496, 605.479 684.882, 602.539 680.573 C 599.434 676.022, 598.235 672.682, 596.497 663.750 C 595.899 660.679, 594.839 660.284, 593.032 662.461 M 203.378 683.558 C 203.693 689.705, 204.611 695.538, 205.739 698.558 L 207.586 703.500 213.543 703.451 C 219.939 703.398, 232.030 699.568, 231.960 697.616 C 231.938 697.002, 229.350 694.569, 226.210 692.210 C 223.069 689.850, 218.491 686.137, 216.036 683.960 C 213.581 681.782, 210.786 680, 209.826 680 C 208.101 680, 207.410 679.427, 204.397 675.500 C 202.996 673.674, 202.907 674.373, 203.378 683.558 M 242.725 712.170 C 240.098 713.837, 233.871 716.657, 228.886 718.436 L 219.822 721.673 223.060 724.397 C 231.422 731.434, 245.122 735.971, 258 735.970 C 264.788 735.969, 282.623 732.969, 285.159 731.402 C 285.723 731.053, 281.981 728.514, 276.843 725.760 C 271.704 723.005, 263.291 718.108, 258.146 714.876 C 253.001 711.644, 248.501 709.031, 248.146 709.070 C 247.791 709.108, 245.351 710.503, 242.725 712.170 M 359.150 720.123 C 356.208 720.612, 350.358 722.195, 346.150 723.640 C 338.014 726.434, 316 736.876, 316 737.941 C 316 738.290, 320.613 740.227, 326.250 742.246 C 348.819 750.327, 374.026 756.357, 398.301 759.481 C 412.344 761.289, 417 761.389, 417 759.885 C 417 759.272, 414.778 754.164, 412.063 748.534 C 406.616 737.241, 399.734 728.792, 392.558 724.587 C 384.201 719.690, 371.759 718.027, 359.150 720.123 M 490 762.539 C 482.575 763.804, 467.950 765.382, 457.500 766.046 C 447.050 766.709, 438.373 767.360, 438.218 767.492 C 437.614 768.004, 442.797 780.977, 445.334 785.307 C 448.151 790.114, 454.127 795.518, 460 798.570 C 462.432 799.834, 465.788 800.405, 471 800.444 C 477.514 800.493, 479.218 800.105, 483.957 797.500 C 492.056 793.048, 499.366 785.087, 504.042 775.628 C 506.252 771.157, 508.331 765.813, 508.661 763.750 C 509.241 760.127, 509.164 760.004, 506.381 760.120 C 504.796 760.186, 497.425 761.274, 490 762.539" stroke="none" fill="#fafafa" fill-rule="evenodd"/></svg>