<svg width="20" height="20" viewBox="0 0 20 20" fill="none" xmlns="http://www.w3.org/2000/svg">
<g id="Icon / 20 px / User ">
<g id="Icon">
<path id="Vector" d="M1.77149 16.4991C1.56428 16.8577 1.68705 17.3165 2.04571 17.5237C2.40437 17.7309 2.8631 17.6081 3.07031 17.2495L1.77149 16.4991ZM16.9295 17.2496C17.1367 17.6083 17.5955 17.731 17.9541 17.5238C18.3128 17.3166 18.4356 16.8579 18.2284 16.4992L16.9295 17.2496ZM3.07031 17.2495C3.77287 16.0334 4.78309 15.0236 5.99946 14.3216L5.24966 13.0224C3.80529 13.8561 2.60574 15.0551 1.77149 16.4991L3.07031 17.2495ZM5.99946 14.3216C7.21584 13.6196 8.59554 13.25 9.99996 13.25L9.99998 11.75C8.33232 11.75 6.69402 12.1888 5.24966 13.0224L5.99946 14.3216ZM9.99996 13.25C11.4044 13.25 12.7841 13.6196 14.0004 14.3217L14.7503 13.0225C13.3059 12.1889 11.6676 11.75 9.99998 11.75L9.99996 13.25ZM14.0004 14.3217C15.2168 15.0237 16.227 16.0335 16.9295 17.2496L18.2284 16.4992C17.3942 15.0552 16.1946 13.8562 14.7503 13.0225L14.0004 14.3217ZM14.2499 7.5C14.2499 9.84723 12.3472 11.75 9.99997 11.75V13.25C13.1756 13.25 15.7499 10.6756 15.7499 7.5H14.2499ZM9.99997 11.75C7.65274 11.75 5.74988 9.84719 5.74988 7.5H4.24988C4.24988 10.6757 6.82435 13.25 9.99997 13.25V11.75ZM5.74988 7.5C5.74988 5.15279 7.65267 3.25 9.99988 3.25V1.75C6.82425 1.75 4.24988 4.32436 4.24988 7.5H5.74988ZM9.99988 3.25C12.3471 3.25 14.2499 5.15279 14.2499 7.5H15.7499C15.7499 4.32436 13.1755 1.75 9.99988 1.75V3.25Z" fill="#808086"/>
</g>
</g>
</svg>
